<svg width="290" height="232" fill="none" xmlns="http://www.w3.org/2000/svg"><g filter="url(#filter0_d)"><path d="M23.733 218.513h242.534c7.584 0 13.733-6.156 13.733-13.749V41.558c0-7.593-6.149-13.75-13.733-13.75H23.733C16.149 27.808 10 33.965 10 41.558v163.206c0 7.593 6.149 13.749 13.733 13.749z" fill="#F0F0F0"/><path d="M20.575 188.627h248.85V7.509H20.575v181.118z" fill="#fff"/><path d="M20.574 29.386h248.85V7.512H20.574v21.874z" fill="url(#paint0_linear)"/><path d="M239.142 202.303c0 4.817 4.585 8.72 10.24 8.72s10.24-3.903 10.24-8.72c0-4.816-4.585-8.72-10.24-8.72s-10.24 3.904-10.24 8.72z" fill="#CCC"/><path d="M63.494 22.581H33.936a2.969 2.969 0 0 1-2.968-2.971v-2.323a2.969 2.969 0 0 1 2.968-2.972h29.558c1.64 0 2.968 1.33 2.968 2.972v2.323a2.97 2.97 0 0 1-2.968 2.971z" fill="#F5F7FF"/><path d="M169.095 105.606H38.806v4.484h130.289v-4.484zM135.439 113.684H38.806v4.484h96.633v-4.484zM100.079 131.232H38.806v4.484h61.273v-4.484zM148.889 139.307H38.806v4.484h110.083v-4.484zM141.931 158.604H38.806v4.484h103.125v-4.484zM164.731 166.679H38.806v4.484h125.925v-4.484z" fill="#E6E6E6"/><path d="M35.721 105.606h-3.273v12.56h3.273v-12.56zM35.721 131.232h-3.273v12.559h3.273v-12.559zM35.721 158.604h-3.273v12.559h3.273v-12.559z" fill="#4DA567"/><path d="M212.365 176.819H201.93a3.757 3.757 0 0 1-3.755-3.759v-10.448a3.757 3.757 0 0 1 3.755-3.76h10.435a3.757 3.757 0 0 1 3.755 3.76v10.448a3.757 3.757 0 0 1-3.755 3.759z" fill="#26B057"/><path d="M206.579 171.793l-4.536-3.958a.894.894 0 0 1 1.175-1.348l3.207 2.801 4.575-5.11a.896.896 0 0 1 1.263-.07c.367.33.397.895.069 1.264l-5.753 6.421z" fill="#fff"/><path d="M212.039 149.455h-9.783a4.096 4.096 0 0 1-4.089-4.094v-9.795a4.099 4.099 0 0 1 4.089-4.096h9.783a4.098 4.098 0 0 1 4.091 4.096v9.795a4.099 4.099 0 0 1-4.091 4.094zm-9.783-16.844a2.957 2.957 0 0 0-2.951 2.955v9.795a2.956 2.956 0 0 0 2.951 2.955h9.783a2.956 2.956 0 0 0 2.952-2.955v-9.795a2.957 2.957 0 0 0-2.952-2.955h-9.783zM239.058 122.083h-9.783a4.096 4.096 0 0 1-4.089-4.094v-9.795a4.096 4.096 0 0 1 4.089-4.094h9.783a4.096 4.096 0 0 1 4.089 4.094v9.795a4.094 4.094 0 0 1-4.089 4.094zm-9.783-16.844a2.958 2.958 0 0 0-2.952 2.955v9.795a2.957 2.957 0 0 0 2.952 2.955h9.783a2.957 2.957 0 0 0 2.952-2.955v-9.795a2.958 2.958 0 0 0-2.952-2.955h-9.783zM239.058 176.827h-9.783a4.096 4.096 0 0 1-4.089-4.094v-9.795a4.096 4.096 0 0 1 4.089-4.094h9.783a4.096 4.096 0 0 1 4.089 4.094v9.795a4.094 4.094 0 0 1-4.089 4.094zm-9.783-16.844a2.958 2.958 0 0 0-2.952 2.955v9.795a2.957 2.957 0 0 0 2.952 2.955h9.783a2.957 2.957 0 0 0 2.952-2.955v-9.795a2.958 2.958 0 0 0-2.952-2.955h-9.783zM239.384 149.447h-10.435a3.757 3.757 0 0 1-3.755-3.759V135.24a3.757 3.757 0 0 1 3.755-3.76h10.435a3.757 3.757 0 0 1 3.755 3.76v10.448a3.757 3.757 0 0 1-3.755 3.759z" fill="#26B057"/><path d="M233.598 144.421l-4.536-3.96a.896.896 0 0 1-.086-1.262.891.891 0 0 1 1.26-.087l3.208 2.802 4.575-5.11a.895.895 0 0 1 1.332 1.194l-5.753 6.423z" fill="#fff"/><path d="M212.365 122.075H201.93a3.757 3.757 0 0 1-3.755-3.759v-10.448a3.757 3.757 0 0 1 3.755-3.76h10.435a3.757 3.757 0 0 1 3.755 3.76v10.448a3.758 3.758 0 0 1-3.755 3.759z" fill="#26B057"/><path d="M206.579 117.047l-4.536-3.958a.895.895 0 0 1 1.175-1.349l3.207 2.802 4.575-5.11a.896.896 0 0 1 1.263-.07c.367.33.397.895.069 1.264l-5.753 6.421z" fill="#fff"/><path d="M64.335 89.856H45.162v2.364h19.173v-2.364zM68.985 85.645H40.511v2.364h28.474v-2.364z" fill="#D6D6D6"/><path d="M59.743 53.184a4.952 4.952 0 0 1-4.95 4.956 4.952 4.952 0 0 1-4.95-4.956 4.952 4.952 0 0 1 4.95-4.956 4.952 4.952 0 0 1 4.95 4.956z" fill="url(#paint1_linear)"/><path d="M63.722 69.34v9.426a21.59 21.59 0 0 1-8.974 1.937c-3.2 0-6.239-.691-8.973-1.937V69.34c0-4.96 4.015-8.984 8.973-8.984 4.958 0 8.974 4.024 8.974 8.984z" fill="url(#paint2_linear)"/><path d="M54.748 81.292c-3.216 0-6.317-.669-9.217-1.99-7.949-3.616-13.083-11.6-13.083-20.337 0-12.312 10.004-22.328 22.3-22.328 12.296 0 22.3 10.017 22.3 22.328 0 8.738-5.136 16.72-13.083 20.337a22.074 22.074 0 0 1-9.217 1.99zm0-43.475c-11.648 0-21.124 9.487-21.124 21.15 0 8.276 4.866 15.838 12.395 19.264a20.934 20.934 0 0 0 8.73 1.883c3.045 0 5.982-.634 8.729-1.883 7.528-3.426 12.394-10.988 12.394-19.264 0-11.663-9.476-21.15-21.124-21.15z" fill="url(#paint3_linear)"/><path d="M99.826 37.427H89.482v2.294h10.344v-2.294zM131.781 37.427h-12.124v2.294h12.124v-2.294zM157.52 37.427h-7.585v2.294h7.585v-2.294zM193.414 37.427h-13.856v2.294h13.856v-2.294zM218.609 37.427h-11.46v2.294h11.46v-2.294zM248.632 37.427h-14.465v2.294h14.465v-2.294zM89.826 43.998h-.344v35.45h.344v-35.45zM119.829 43.998h-.344v35.45h.344v-35.45zM150.279 43.998h-.344v35.45h.344v-35.45zM179.73 43.998h-.344v35.45h.344v-35.45zM207.319 43.998h-.344v35.45h.344v-35.45zM234.34 43.998h-.345v35.45h.345v-35.45z" fill="#E6E6E6"/><path d="M89.482 79.447l9.397-13.255 7.094 10.005 11.005-15.521h5.069l7.518 4.587 9.043-12.753 12.421 17.52 7.74-10.914h2.072l4.103-5.789 11.052 15.586 5.19-7.318 5.284 7.45 9.106-12.843 6.936 9.783h5.075l10.737-15.141 11.224 15.83 19.084-15.83v28.603H89.482z" fill="#AAD6AF"/><path d="M115.787 79.447L123.48 68.6l4.499 6.348 9.164-12.923 8.692 12.26h6.85l6.166-8.695h8.071l8.758 12.352 5.707-8.047 3.187 4.497 10.455-14.745 7.764 10.948h6.762l7.674-10.819 3.374 4.759 2.759-3.893 7.132 10.058h7.385l10.753-15.166v23.914H115.787z" fill="#4DA567"/></g><defs><filter id="filter0_d" x="0" y=".509" width="290" height="231.004" filterUnits="userSpaceOnUse" color-interpolation-filters="sRGB"><feFlood flood-opacity="0" result="BackgroundImageFix"/><feColorMatrix in="SourceAlpha" values="0 0 0 0 0 0 0 0 0 0 0 0 0 0 0 0 0 0 127 0"/><feOffset dy="3"/><feGaussianBlur stdDeviation="5"/><feColorMatrix values="0 0 0 0 0.215686 0 0 0 0 0.27451 0 0 0 0 0.372549 0 0 0 0.15 0"/><feBlend in2="BackgroundImageFix" result="effect1_dropShadow"/><feBlend in="SourceGraphic" in2="effect1_dropShadow" result="shape"/></filter><linearGradient id="paint0_linear" x1="269.424" y1="29.386" x2="269.424" y2="7.512" gradientUnits="userSpaceOnUse"><stop stop-color="#3E9679"/><stop offset=".523" stop-color="#4DA567"/><stop offset="1" stop-color="#58B25B"/></linearGradient><linearGradient id="paint1_linear" x1="59.743" y1="58.14" x2="59.743" y2="48.227" gradientUnits="userSpaceOnUse"><stop stop-color="#3E9679"/><stop offset=".523" stop-color="#4DA567"/><stop offset="1" stop-color="#58B25B"/></linearGradient><linearGradient id="paint2_linear" x1="63.722" y1="80.703" x2="63.722" y2="60.356" gradientUnits="userSpaceOnUse"><stop stop-color="#3E9679"/><stop offset=".523" stop-color="#4DA567"/><stop offset="1" stop-color="#58B25B"/></linearGradient><linearGradient id="paint3_linear" x1="54.749" y1="43.565" x2="54.749" y2="90.023" gradientUnits="userSpaceOnUse"><stop stop-color="#D3DAE0"/><stop offset="1" stop-color="#fff"/></linearGradient></defs></svg>