<svg xmlns="http://www.w3.org/2000/svg" xmlns:xlink="http://www.w3.org/1999/xlink" width="483" height="201" viewBox="0 0 483 201">
    <defs>
        <path id="a" d="M.686.168h27.971V28.14H.686z"/>
        <path id="c" d="M.27.352h28.648V29H.269z"/>
        <path id="e" d="M0 196h481V0H0z"/>
        <path id="h" d="M5 180h127a5 5 0 0 0 5-5V5a5 5 0 0 0-5-5H5a5 5 0 0 0-5 5v170a5 5 0 0 0 5 5z"/>
        <filter id="g" width="124.1%" height="118.3%" x="-12%" y="-7.5%" filterUnits="objectBoundingBox">
            <feOffset dy="3" in="SourceAlpha" result="shadowOffsetOuter1"/>
            <feGaussianBlur in="shadowOffsetOuter1" result="shadowBlurOuter1" stdDeviation="5"/>
            <feColorMatrix in="shadowBlurOuter1" values="0 0 0 0 0.215686275 0 0 0 0 0.274509804 0 0 0 0 0.37254902 0 0 0 0.15 0"/>
        </filter>
    </defs>
    <g fill="none" fill-rule="evenodd">
        <g transform="translate(1)">
            <path fill="#78C272" stroke="#78C272" d="M367.5 103c-3.038 0-5.5 1.469-5.5 5.572 0 4.102 2.462 7.428 5.5 7.428 3.037 0 5.5-3.326 5.5-7.428 0-4.103-2.463-5.572-5.5-5.572m0 1c1.397 0 2.485.337 3.236 1 .845.746 1.272 1.948 1.272 3.572 0 3.545-2.023 6.43-4.509 6.43-2.485 0-4.509-2.885-4.509-6.43 0-1.624.428-2.826 1.273-3.572.75-.663 1.84-1 3.236-1M371.97 117c-.355 0-.687.054-.97.165-.508.2-2.688.983-4.001.983-1.312 0-3.492-.784-4-.983a2.67 2.67 0 0 0-.972-.165c-1.415 0-3.23.83-4.028 2.132C357 120.76 357 127 357 127h20s0-6.24-1-7.868c-.8-1.301-2.614-2.132-4.03-2.132m0 .984c1.039 0 2.546.634 3.173 1.656.517.841.785 3.953.845 6.376h-17.976c.06-2.423.327-5.535.843-6.376.629-1.022 2.136-1.656 3.172-1.656.238 0 .446.033.601.094.108.043 2.698 1.054 4.37 1.054 1.675 0 4.263-1.011 4.374-1.054.155-.061.363-.094.599-.094"/>
            <path fill="#78C272" stroke="#78C272" d="M367.5 94.002c-11.854 0-21.498 9.644-21.498 21.498 0 11.854 9.644 21.5 21.498 21.5 11.854 0 21.5-9.646 21.5-21.5s-9.646-21.498-21.5-21.498m0 43.998c-12.405 0-22.5-10.093-22.5-22.5 0-12.405 10.095-22.5 22.5-22.5 12.407 0 22.5 10.095 22.5 22.5 0 12.407-10.093 22.5-22.5 22.5M16 120c-2.21 0-4 1.017-4 3.858 0 2.84 1.79 5.142 4 5.142s4-2.303 4-5.142c0-2.841-1.79-3.858-4-3.858m0 .691c1.016 0 1.807.234 2.353.693.615.517.925 1.35.925 2.474 0 2.454-1.47 4.45-3.279 4.45-1.807 0-3.279-1.996-3.279-4.45 0-1.124.312-1.957.927-2.474.545-.46 1.337-.693 2.352-.693M19.48 130c-.25 0-.482.037-.681.115-.355.14-1.881.688-2.8.688-.918 0-2.444-.549-2.8-.688a1.862 1.862 0 0 0-.679-.115c-.99-.001-2.262.582-2.82 1.492C9 132.632 9 137 9 137h14s0-4.369-.7-5.508c-.56-.91-1.83-1.492-2.82-1.492m0 .688c.726 0 1.781.443 2.22 1.16.361.588.549 2.766.59 4.464H9.71c.041-1.698.229-3.876.589-4.464.44-.717 1.496-1.16 2.222-1.16.164 0 .31.023.419.066.077.03 1.89.738 3.06.738 1.172 0 2.985-.708 3.06-.738.11-.043.255-.066.42-.066"/>
            <path fill="#78C272" stroke="#78C272" d="M15.585 114.737c-8.21 0-14.892 6.634-14.892 14.789 0 8.153 6.682 14.787 14.892 14.787 8.212 0 14.892-6.634 14.892-14.787 0-8.155-6.68-14.79-14.892-14.79m0 30.267C6.992 145.003 0 138.059 0 129.526c0-8.536 6.992-15.479 15.585-15.479 8.595 0 15.587 6.943 15.587 15.479 0 8.533-6.992 15.477-15.587 15.477M427.01 44h-18.02c-1.651 0-2.99 1.506-2.99 3.363v11.273c0 1.858 1.339 3.364 2.99 3.364h18.02c1.651 0 2.99-1.506 2.99-3.364V47.363c0-1.857-1.339-3.363-2.99-3.363zm0 1c1.097 0 1.99 1.06 1.99 2.363v11.273c0 1.304-.893 2.364-1.99 2.364h-18.02c-1.097 0-1.99-1.06-1.99-2.364V47.363c0-1.303.893-2.363 1.99-2.363h18.02z"/>
            <path fill="#78C272" stroke="#78C272" d="M417 54l-11-8.203.577-.797 10.424 7.773L427.423 45l.577.797z"/>
            <path fill="#78C272" stroke="#78C272" d="M417 31.98c-11.59 0-21.02 9.43-21.02 21.02s9.43 21.02 21.02 21.02c11.592 0 21.02-9.43 21.02-21.02S428.593 31.98 417 31.98M417 75c-12.13 0-22-9.87-22-22 0-12.131 9.87-22 22-22s22 9.869 22 22c0 12.13-9.87 22-22 22M44.758 48H31.242C30.004 48 29 49.17 29 50.616v8.768C29 60.829 30.004 62 31.242 62h13.516C45.996 62 47 60.83 47 59.384v-8.768C47 49.171 45.996 48 44.758 48zm0 .778c.823 0 1.492.824 1.492 1.838v8.768c0 1.014-.669 1.838-1.492 1.838H31.242c-.822 0-1.492-.824-1.492-1.838v-8.768c0-1.014.67-1.838 1.492-1.838h13.516z"/>
            <path fill="#78C272" stroke="#78C272" d="M38.5 55L30 48.62l.445-.62 8.055 6.046L46.555 48l.445.62z"/>
            <path fill="#78C272" stroke="#78C272" d="M38 37.756c-8.956 0-16.244 7.288-16.244 16.243 0 8.957 7.288 16.245 16.244 16.245s16.244-7.288 16.244-16.245c0-8.955-7.288-16.243-16.244-16.243M38 71c-9.374 0-17-7.626-17-17 0-9.374 7.626-17 17-17 9.374 0 17 7.626 17 17 0 9.374-7.626 17-17 17M67.754 143h-7.51c-.686 0-1.244.669-1.244 1.494v5.012c0 .826.558 1.494 1.245 1.494h7.51c.687 0 1.245-.668 1.245-1.494v-5.012c0-.825-.558-1.494-1.246-1.494zm0 .444c.458 0 .83.47.83 1.05v5.012c0 .578-.372 1.05-.83 1.05h-7.51c-.456 0-.829-.472-.829-1.05v-5.012c0-.58.373-1.05.83-1.05h7.51z"/>
            <path fill="#78C272" stroke="#78C272" d="M64.5 147l-4.5-3.647.236-.353 4.265 3.454L68.765 143l.235.353z"/>
            <path fill="#78C272" stroke="#78C272" d="M64.5 137.424c-5.006 0-9.079 4.071-9.079 9.076 0 5.006 4.073 9.076 9.079 9.076 5.005 0 9.079-4.07 9.079-9.076 0-5.005-4.074-9.076-9.079-9.076m0 18.576c-5.239 0-9.5-4.262-9.5-9.5s4.261-9.5 9.5-9.5 9.5 4.262 9.5 9.5-4.261 9.5-9.5 9.5M96.25 94H79.735C78.225 94 77 95.203 77 96.686v9.022c0 1.487 1.227 2.692 2.741 2.692h15.592L99 112V96.701C99 95.21 97.769 94 96.25 94zm0 .9c1.01 0 1.833.808 1.833 1.8v13.127l-2.102-2.064-.268-.263H79.741c-1.005 0-1.824-.804-1.824-1.792v-9.022c0-.984.816-1.786 1.82-1.786h16.512z"/>
            <path fill="#78C272" stroke="#78C272" d="M88.5 81.912c-10.8 0-19.588 8.787-19.588 19.588 0 10.8 8.788 19.588 19.588 19.588s19.589-8.788 19.589-19.588S99.3 81.912 88.5 81.912m0 40.088c-11.303 0-20.5-9.197-20.5-20.5S77.197 81 88.5 81s20.5 9.197 20.5 20.5S99.803 122 88.5 122M439.625 146h-14.263c-1.304 0-2.362 1.07-2.362 2.388v8.021c0 1.321 1.058 2.392 2.367 2.392h13.466L442 162V148.4c0-1.326-1.063-2.4-2.375-2.4zm0 .801c.873 0 1.583.718 1.583 1.6v11.668l-1.815-1.834-.232-.234H425.367a1.585 1.585 0 0 1-1.575-1.592v-8.021a1.58 1.58 0 0 1 1.57-1.587h14.263z"/>
            <path fill="#78C272" stroke="#78C272" d="M432.5 135.78c-9.22 0-16.72 7.5-16.72 16.72 0 9.22 7.5 16.722 16.72 16.722 9.22 0 16.72-7.502 16.72-16.722 0-9.22-7.5-16.72-16.72-16.72m0 34.22c-9.65 0-17.5-7.85-17.5-17.5s7.85-17.5 17.5-17.5c9.649 0 17.5 7.85 17.5 17.5s-7.851 17.5-17.5 17.5M362.126 9h-11.26c-1.031 0-1.866.868-1.866 1.94v6.516c0 1.074.836 1.944 1.87 1.944h10.63L364 22V10.95c0-1.077-.838-1.95-1.874-1.95zm0 .65c.688 0 1.25.584 1.25 1.3v9.48l-1.433-1.49-.184-.19h-10.89c-.686 0-1.244-.58-1.244-1.294V10.94c0-.711.555-1.29 1.24-1.29h11.26z"/>
            <g transform="translate(342)">
                <mask id="b" fill="#fff">
                    <use xlink:href="#a"/>
                </mask>
                <path fill="#FFF" d="M14.67.79C7.303.79 1.309 6.785 1.309 14.154c0 7.368 5.994 13.363 13.363 13.363 7.37 0 13.364-5.995 13.364-13.363C28.035 6.784 22.04.79 14.671.79m0 27.35C6.959 28.14.686 21.865.686 14.154.686 6.442 6.959.168 14.67.168c7.713 0 13.986 6.274 13.986 13.986 0 7.71-6.273 13.986-13.986 13.986" mask="url(#b)"/>
            </g>
            <path fill="#78C272" stroke="#78C272" d="M117 24.992A5.013 5.013 0 0 0 111.993 30 5.013 5.013 0 0 0 117 35.008a5.013 5.013 0 0 0 5.008-5.009A5.013 5.013 0 0 0 117 24.992M117 36c-3.308 0-6-2.692-6-6 0-3.309 2.692-6 6-6s6 2.691 6 6c0 3.308-2.692 6-6 6"/>
            <path fill="#78C272" stroke="#78C272" d="M117 20.014c-2.672 0-5.183 1.059-7.073 2.98a10.199 10.199 0 0 0-2.93 7.194c0 2.717 1.04 5.272 2.93 7.194l7.065 7.185 7.082-7.187a10.196 10.196 0 0 0 2.929-7.192c0-2.717-1.04-5.272-2.93-7.194-1.89-1.921-4.401-2.98-7.073-2.98zM116.99 46l-7.768-7.901A11.211 11.211 0 0 1 106 30.188c0-2.989 1.144-5.798 3.222-7.911C111.299 20.164 114.062 19 117 19c2.94 0 5.7 1.164 7.778 3.277a11.211 11.211 0 0 1 3.222 7.91c0 2.989-1.144 5.798-3.222 7.912L116.99 46z"/>
            <path fill="#78C272" stroke="#78C272" d="M117.5 10.002c-11.854 0-21.498 9.644-21.498 21.499 0 11.853 9.644 21.497 21.498 21.497 11.854 0 21.5-9.644 21.5-21.497 0-11.855-9.646-21.5-21.5-21.5m0 43.999C105.093 54 95 43.907 95 31.5 95 19.095 105.093 9 117.5 9S140 19.094 140 31.5c0 12.407-10.093 22.5-22.5 22.5M107 164.662a3.341 3.341 0 0 0-3.338 3.338 3.341 3.341 0 0 0 3.338 3.338 3.341 3.341 0 0 0 3.337-3.338 3.341 3.341 0 0 0-3.337-3.338m0 7.338c-2.205 0-4-1.795-4-4s1.795-4 4-4c2.204 0 4 1.795 4 4s-1.796 4-4 4"/>
            <path fill="#78C272" stroke="#78C272" d="M107.5 161.676a6.794 6.794 0 0 0-4.823 1.987 6.72 6.72 0 0 0-1.997 4.795 6.72 6.72 0 0 0 1.997 4.797l4.817 4.79 4.83-4.791a6.714 6.714 0 0 0 1.995-4.796 6.714 6.714 0 0 0-1.997-4.795 6.793 6.793 0 0 0-4.822-1.987zM107.493 179l-5.297-5.267a7.39 7.39 0 0 1-2.196-5.275c0-1.991.78-3.864 2.196-5.273A7.472 7.472 0 0 1 107.5 161c2.003 0 3.886.776 5.303 2.185a7.39 7.39 0 0 1 2.197 5.273 7.39 7.39 0 0 1-2.197 5.275l-5.31 5.267z"/>
            <path fill="#78C272" stroke="#78C272" d="M107.5 154.69c-8.166 0-14.81 6.644-14.81 14.81s6.644 14.81 14.81 14.81 14.81-6.644 14.81-14.81-6.644-14.81-14.81-14.81m0 30.31c-8.546 0-15.5-6.953-15.5-15.5 0-8.546 6.954-15.5 15.5-15.5 8.547 0 15.5 6.954 15.5 15.5 0 8.547-6.953 15.5-15.5 15.5M465.5 93.744a3.76 3.76 0 0 0-3.756 3.755 3.76 3.76 0 0 0 3.756 3.756 3.76 3.76 0 0 0 3.756-3.756 3.76 3.76 0 0 0-3.756-3.755m0 8.256c-2.481 0-4.5-2.02-4.5-4.5 0-2.483 2.019-4.5 4.5-4.5 2.482 0 4.5 2.017 4.5 4.5 0 2.48-2.018 4.5-4.5 4.5"/>
            <path fill="#78C272" stroke="#78C272" d="M465 90.713c-1.943 0-3.77.746-5.144 2.097a7.053 7.053 0 0 0-2.131 5.062c0 1.912.756 3.71 2.13 5.063l5.139 5.056 5.151-5.057a7.05 7.05 0 0 0 2.13-5.062c0-1.912-.755-3.71-2.13-5.062A7.292 7.292 0 0 0 465 90.713zM464.994 109l-5.65-5.56A7.754 7.754 0 0 1 457 97.871c0-2.102.832-4.08 2.344-5.566A8.01 8.01 0 0 1 465 90c2.137 0 4.147.819 5.658 2.306A7.759 7.759 0 0 1 473 97.872c0 2.104-.832 4.08-2.342 5.567L464.994 109z"/>
            <path fill="#78C272" stroke="#78C272" d="M465 83.713c-8.43 0-15.287 6.857-15.287 15.288 0 8.429 6.857 15.287 15.287 15.287s15.288-6.858 15.288-15.287c0-8.43-6.858-15.288-15.288-15.288M465 115c-8.823 0-16-7.178-16-16s7.177-16 16-16c8.824 0 16 7.178 16 16s-7.176 16-16 16M370 176.66a3.342 3.342 0 0 0-3.34 3.34 3.342 3.342 0 0 0 3.34 3.338 3.341 3.341 0 0 0 3.338-3.339 3.341 3.341 0 0 0-3.339-3.338m0 7.339c-2.205 0-3.999-1.794-3.999-4s1.794-4 4-4 4 1.794 4 4-1.794 4-4 4"/>
            <path fill="#78C272" stroke="#78C272" d="M370 173.638c-1.701 0-3.3.667-4.5 1.875a6.384 6.384 0 0 0-1.866 4.53c0 1.711.662 3.32 1.865 4.53l4.496 4.523 4.507-4.523a6.388 6.388 0 0 0 1.864-4.53c0-1.711-.662-3.32-1.865-4.53a6.306 6.306 0 0 0-4.502-1.875zM369.992 190l-4.942-4.976a7.014 7.014 0 0 1-2.051-4.981c0-1.882.728-3.651 2.05-4.98A6.928 6.928 0 0 1 370 173a6.93 6.93 0 0 1 4.95 2.062 7.016 7.016 0 0 1 2.05 4.981 7.014 7.014 0 0 1-2.05 4.98L369.992 190z"/>
            <g transform="translate(355 166)">
                <mask id="d" fill="#fff">
                    <use xlink:href="#c"/>
                </mask>
                <path fill="#78C272" stroke="#78C272" d="M14.593.989C7.047.989.907 7.129.907 14.676c0 7.546 6.14 13.686 13.686 13.686 7.547 0 13.687-6.14 13.687-13.686C28.28 7.128 22.14.989 14.593.989m0 28.011C6.695 29 .269 22.573.269 14.676.27 6.776 6.695.352 14.593.352c7.899 0 14.325 6.425 14.325 14.324C28.918 22.573 22.492 29 14.593 29" mask="url(#d)"/>
            </g>
            <mask id="f" fill="#fff">
                <use xlink:href="#e"/>
            </mask>
            <path fill="#78C272" stroke="#78C272" d="M110 102.895h62V102h-62zM97.051 83L96 82.613 107.95 53l1.05.389zM72.492 88L50 66.574l.51-.574L73 87.426zM30.257 124l-.257-.735L69.743 109l.257.735zM103.285 155L94 122.217l.715-.217L104 154.782zM120.36 162l-.36-.685L171.64 133l.36.685zM69.469 139l-.469-.24L77.53 120l.47.24zM357.527 173L306 131.6l.475-.6L358 172.4zM304 116.895h42V116h-42zM305.51 60l-.51-.571L345.49 23l.51.571zM172.677 59L137 41.706l.323-.706L173 58.293zM364.257 93L357 28.087l.742-.087L365 92.913zM370 167l-1-27.978 1-.022 1 27.978zM381.85 99l-.85-.686L403.15 70l.85.686zM417.485 143L387 126.96l.515-.96L418 142.04zM389.187 113l-.187-1.043L447.813 102l.187 1.043z" mask="url(#f)"/>
        </g>
        <g transform="translate(173 8)">
            <use fill="#000" filter="url(#g)" xlink:href="#h"/>
            <use fill="#53AC60" xlink:href="#h"/>
        </g>
        <path fill="#FFF" d="M187 29h35v-2h-35zM187 33h19v-2h-19zM187 39h30v-2h-30zM200 50h18v-2h-18zM212 54h16v-2h-16zM210 33h32v-2h-32zM247 33h15v-2h-15zM267 33h20v-2h-20zM220 39h18v-2h-18zM217.469 43H200v2h33v-2zM223 50h18v-2h-18zM237 45h19v-2h-19zM260 45h9v-2h-9zM274 45h13v-2h-13zM244 50h21v-2h-21zM269 50h6v-2h-6zM234 54h13v-2h-13zM200 66h18v-2h-18zM200 71h18v-2h-18zM223 71h15v-2h-15zM240.511 64H223v2h30v-2zM255 66h7v-2h-7zM267 66h9v-2h-9zM253 71h18v-2h-18zM200 77h18v-2h-18zM200 82h18v-2h-18zM223 77h9v-2h-9zM223 82h32v-2h-32zM256.136 75H237v2h33v-2zM274 77h13v-2h-13zM257 82h18v-2h-18zM242 71h7v-2h-7zM187 92h19v-2h-19zM187 98h30v-2h-30zM200 103h18v-2h-18zM200 108h18v-2h-18zM234.635 90H210v2h30v-2zM247 92h27v-2h-27zM220 98h18v-2h-18zM223 108h14v-2h-14zM249.565 101H223v2h39v-2zM240 108h25v-2h-25zM269 108h6v-2h-6zM234 114h13v-2h-13z"/>
        <path fill="#FFF" d="M228.77 112H212v2h60v-2zM275 114h7v-2h-7zM200 124h18v-2h-18zM200 129h18v-2h-18zM223 124h28v-2h-28zM223 129h15v-2h-15zM255 124h7v-2h-7zM267 124h9v-2h-9zM253 129h18v-2h-18zM242 129h7v-2h-7zM187 137h19v-2h-19zM187 144h30v-2h-30zM200 149h18v-2h-18zM200 154h18v-2h-18zM212 161h16v-2h-16zM210 137h18v-2h-18zM251.28 135H233v2h55v-2zM220 144h18v-2h-18zM223 154h14v-2h-14zM249.173 147H223v2h39v-2zM265 149h8v-2h-8zM278 149h8v-2h-8zM240 154h25v-2h-25zM269 154h6v-2h-6zM234 161h13v-2h-13zM200 175h18v-2h-18zM217.278 168H200v2h51v-2zM223 175h15v-2h-15zM255 170h7v-2h-7zM267 170h9v-2h-9zM253 175h18v-2h-18zM242 175h7v-2h-7z"/>
        <path fill="#3C8C46" d="M173 20h137v-7a5 5 0 0 0-5-5H178a5 5 0 0 0-5 5v7z"/>
    </g>
</svg>
