<svg xmlns="http://www.w3.org/2000/svg" width="292" height="236" fill="none"><g filter="url(#a)"><path fill="#58B25B" d="M119.335 200.991a97.163 97.163 0 0 1-61.436-21.927 96.989 96.989 0 0 1-33.68-55.816 96.921 96.921 0 0 1 9.276-64.511A97.067 97.067 0 0 1 81.54 14.649a97.196 97.196 0 0 1 74.32-.525 97.056 97.056 0 0 1 52.923 52.129 96.918 96.918 0 0 1 .526 74.245 97.062 97.062 0 0 1-52.181 52.871 96.558 96.558 0 0 1-37.794 7.622zm0-173.361c-42.156 0-76.458 34.262-76.458 76.381s34.297 76.382 76.458 76.382 76.458-34.263 76.458-76.382c0-42.119-34.302-76.381-76.458-76.381z"/><path fill="#fff" d="M53.21 184.864h131.13V60.771H53.211v124.093z" opacity=".68"/><path fill="#DCDFE3" d="M89.194 70.272H65.415v2.432h23.78v-2.432zm23.823 18.314h-17.17v2.432h17.17v-2.432z"/><path fill="#53AC60" d="M127.084 88.586h-11.393v2.432h11.393v-2.432zm23.277 73.531h-11.393v2.432h11.393v-2.432zm-73.283-27.473H65.685v2.432h11.393v-2.432z"/><path fill="#DCDFE3" d="M156.843 88.586h-27.508v2.432h27.508v-2.432z"/><path fill="#88A2B1" d="M83.36 125.42H65.685v2.431H83.36v-2.431zm47.493 18.382h-17.675v2.431h17.675v-2.431zm-29.74 0h-10.79v2.431h10.79v-2.431z"/><path fill="#53AC60" d="M87.063 143.802H65.685v2.431h21.378v-2.431z"/><path fill="#E0E0E0" d="M77.477 152.96H65.685v2.432h11.792v-2.432z"/><path fill="#3E9679" d="M110.699 70.272h-16.88v2.432h16.88v-2.432z"/><path fill="#53AC60" d="M110.699 97.744h-16.88v2.432h16.88v-2.432z"/><path fill="#88A2B1" d="M92.592 106.901h-7.213v2.432h7.213v-2.432z"/><path fill="#78C272" d="M94.367 116.194h-16.2v2.432h16.2v-2.432z"/><path fill="#53AC60" d="M119.181 116.194H96.816v2.432h22.365v-2.432zm-36.615-9.224h-16.88v2.432h16.88v-2.432zm-6.864 9.224H65.685v2.432h10.017v-2.432zm29.74-9.224h-9.45v2.432h9.45v-2.432z"/><path fill="#3E9679" d="M75.417 162.117h-9.45v2.432h9.45v-2.432zm7.08-73.531h-16.88v2.432h16.88v-2.432z"/><path fill="#78C272" d="M97.426 134.644h-16.88v2.432h16.88v-2.432zm.207 18.316h-16.88v2.432h16.88v-2.432zm29.988 0H110.74v2.432h16.881v-2.432z"/><path fill="#3E9679" d="M89.68 97.744H65.617v2.432H89.68v-2.432z"/><path fill="#78C272" d="M135.124 162.117h-16.881v2.432h16.881v-2.432z"/><path fill="#3E9679" d="M136.751 70.272h-21.506v2.432h21.506v-2.432z"/><path fill="#53AC60" d="M100.491 162.117H78.985v2.432h21.506v-2.432z"/><path fill="#1487E3" d="M175.483 162.117h-21.506v2.432h21.506v-2.432z"/><path fill="#AAD6AF" d="M172.173 143.802h-21.506v2.431h21.506v-2.431z"/><path fill="#53AC60" d="M166.171 97.744h-21.507v2.432h21.507v-2.432zm-57.043 46.058h-4.636v2.431h4.636v-2.431z"/><path fill="#4DA567" d="M174.164 70.272h-21.506v2.432h21.506v-2.432z"/><path fill="#53AC60" d="M140.728 97.744h-12.61v2.432h12.61v-2.432zm-9.875 37.036h-12.61v2.432h12.61v-2.432z"/><path fill="#E0E0E0" d="M148.6 70.272h-7.872v2.432h7.872v-2.432z"/><path fill="#DCDFE3" d="M123.117 97.744h-7.872v2.432h7.872v-2.432z"/><path fill="#AAD6AF" d="M77.73 79.429H65.416v2.432h12.316v-2.432z"/><path fill="#53AC60" d="M107.998 125.488h-9.723v2.431h9.723v-2.431z"/><path fill="#AAD6AF" d="M84.73 79.429h-3.977v2.432h3.977v-2.432z"/><path fill="#88A2B1" d="M163.721 152.96h-32.868v2.432h32.868v-2.432z"/><path fill="#53AC60" d="M91.71 79.429h-4.06v2.432h4.058v-2.432z"/><path fill="#AAD6AF" d="M159.354 79.429H148.6v2.432h10.754v-2.432z"/><path fill="#53AC60" d="M170.107 88.586h-10.754v2.432h10.754v-2.432zm-24.002 55.216h-10.754v2.431h10.754v-2.431zm-31.292 18.315h-10.754v2.432h10.754v-2.432z"/><path fill="#AAD6AF" d="M145.753 79.429h-22.88v2.432h22.88v-2.432z"/><path fill="#53AC60" d="M114.944 134.78h-13.367v2.432h13.367v-2.432zm-7.543 18.18h-6.683v2.432h6.683v-2.432z"/><path fill="#78C272" d="M119.627 79.429h-7.872v2.432h7.872v-2.432z"/><path fill="#53AC60" d="M93.129 88.586h-7.872v2.432h7.872v-2.432zm1.569 36.902h-7.872v2.431h7.872v-2.431z"/><path fill="#AAD6AF" d="M108.753 79.429H95.037v2.432h13.716v-2.432z"/><path fill="#323657" d="M62.402 171.606h-.01c.046.019.052.022.01 0z"/><path fill="#4DA567" d="M159.951 50.472h3.907l-1.196-2.479h-3.907l1.196 2.48zm-1.829 0h.931l-1.196-2.479h-.931l1.196 2.48zm-13.501-2.952h15.823l-.526-1.238h-15.822l.525 1.238z"/><path fill="#fff" d="M224.877 112.592h12.446v-.872h-12.446v.872zm0 4.435h12.446v-3.663h-12.446v3.663zm-5.847 1.78h7.342v-.548h-7.342v.548zm0 1.723h7.342v-1.483h-7.342v1.483zm3.722-4.139h.548v-10.266h-.548v10.266z"/><path fill="#AAD6AF" d="M169.877 145.507l13.041-13.03h19.855v-.648H182.65l-13.232 13.218.459.46z"/><path fill="#4DA567" d="M160.826 71.128l12.73-12.718h52.305v-.648h-52.573l-12.921 12.907.459.459z"/><path fill="#3E9679" d="M79.915 100.196l.459-.458-24.329-24.304H10v.648h45.775l24.14 24.114zm48.477-29.236l.46-.459-20.535-20.513H79.439v.65h28.61l20.343 20.322z"/><path fill="#fff" d="M172.562 179.013h14.721v-.873h-14.721v.873z"/><path fill="#DCDFE3" d="M185.311 181.284h-1.29v39.704h1.29v-39.704z"/><path fill="#CCBDB7" d="M164.633 179.138h10.233v-1.247h-10.233v1.247z"/><path fill="#DCDFE3" d="M167.812 179.012h3.875v-11.758h-3.875v11.758z"/><path fill="#88A2B1" d="M135.867 181.284h56.697v-2.257h-56.697v2.257z"/><path fill="#78C272" d="M203.446 165.364s.622 8.694-1.079 9.727c-1.064.651-5.309 2.848-5.182 3.26.127.412 2.396 3.665 2.396 3.665s8.152-5.363 8.415-7.053c.256-1.651-.401-12.719-1.522-13.229-.839-.382-1.283-.066-2.339.719-1.485 1.1-.689 2.911-.689 2.911z"/><path fill="#EAD8CF" d="M188.589 167.844l-.718-.266s.895-2.1 1.287-2.049c.341.051.679.12 1.013.207l-1.582 2.108z"/><path fill="#DA9B5B" d="M188.426 168.207c.092-.069 1.526-2.82 1.526-2.82l3.067.416-1.657 3.254-2.936-.85z"/><path fill="#424773" d="M193.418 215.567s.249 1.758.285 2.022c.036.263 2.819-.156 2.819-.156l.227-2.092s-2.984-.021-3.331.226z"/><path fill="#292C47" d="M193.667 217.37s-.883 1.059-1.741 1.521c-.857.462-2.196.645-2.701 1.118-.366.345-1.329 1.83 2.219 1.8 3.548-.03 5.26.21 5.641-.359.38-.569-.55-4.203-.55-4.203s-.834.302-2.868.123z"/><path fill="#424773" d="M175.552 215.584l.286 2.022c.037.264 2.82-.157 2.82-.157l.226-2.091s-2.983-.023-3.332.226z"/><path fill="#292C47" d="M175.808 217.382s-.884 1.06-1.74 1.52c-.857.461-4 .841-4.505 1.319-.364.346-.971 1.739 4.022 1.605 3.548-.093 5.26.209 5.641-.36.38-.569-.551-4.203-.551-4.203s-.79.323-2.867.119z"/><path fill="#323F56" d="M202.409 185.203s-10.136 1.713-12.432 2.073c-2.296.36-14.704 3.445-16.256 4.385-1.236.745.647 18.725 1.088 25.585h4.889l.354-20.575c5.868.147 10.056-1.366 14.328-.723 4.273.644 7.833 1.57 10.55-2.069.007.002.107-7.881-2.521-8.676z"/><path fill="#323F56" d="M192.424 217.263l4.764-.294.465-20.296c2.526.063 3.391-.097 5.436-.346l3.847-8.933c-3.372.673-14.173 3.395-15.615 4.268-1.241.744.658 18.742 1.103 25.601z"/><path fill="#EACDB0" d="M197.743 147.244s-3.716-1.026-5.134 1.856c-1.419 2.881-.775 8.345 1.099 8.859 1.873.514 4.565-.078 5.346-1.872.78-1.793 1.397-4.347 1.211-5.992-.187-1.646-1.535-2.457-2.522-2.851z"/><path fill="#EACDB0" d="M194.679 157.383s.039 2.192-.202 2.659c-.241.467 5.175.35 5.175.35s-.853-2.632-.373-4.875c.48-2.218-4.6 1.866-4.6 1.866z"/><path fill="#3A3F47" d="M199.575 154.689s-.29.588-1.692.497c-1.403-.091-3.251-1.785-3.847-1.935-.595-.15-.63-.489-.63-.489l-.315.558-.61.094s.414-1.694-.489-2.291c-.902-.596.407-5.398 4.973-4.24 0 0 3.489.639 3.536 2.585.047 1.946-.245 4.189-.926 5.221z"/><path fill="#78C272" d="M194.193 159.991s.015-.893.42-.979c.405-.086 4.258-.615 4.755-.42l.213 1.179s-.958.585-5.388.22z"/><path fill="#EACDB0" d="M193.078 152.357c.104-.731.937-1.572 1.413-.432.476 1.14-.322 2.8-.857 2.71-.534-.089-.697-1.284-.556-2.278z"/><path fill="#323657" d="M178.057 170.534c-.023.014-.027.014 0 0z"/><path fill="#3A3F47" d="M198.827 147.766s4.531-.212.791 6.854l-.791-6.854z"/><path fill="#88A2B1" d="M208.922 219.67l-.337.948-14.242-4.409.683-1.918 13.896 5.379z"/><path fill="#88A2B1" d="M193.855 215.534h1.618v-15.467h-1.618v15.467z"/><path fill="#DCDFE3" d="M189.891 200.156h9.547v-.911h-9.547v.911z"/><path fill="#88A2B1" d="M180.281 219.67l.338.948 14.241-4.409-.626-2.038-13.953 5.499z"/><path fill="#88A2B1" d="M190.315 220.516v1.101l4.545-5.408-.626-2.038-3.919 6.345z"/><path fill="#DCDFE3" d="M178.951 220.988a1.332 1.332 0 1 0 2.562-.508 1.332 1.332 0 0 0-2.562.508zm11.252 0a1.332 1.332 0 1 0 2.561-.509c-.1-.243-.271-.45-.49-.596a1.328 1.328 0 0 0-2.071 1.105zm17.388 0a1.332 1.332 0 1 0 2.562-.508 1.332 1.332 0 0 0-2.562.508z"/><path fill="#88A2B1" d="M184.998 199.245h19.206c.942 0 1.706-.763 1.706-1.704v-.045c0-.941-.764-1.704-1.706-1.704h-19.206c-.942 0-1.706.763-1.706 1.704v.045c0 .941.764 1.704 1.706 1.704z"/><path fill="#DCDFE3" d="M143.121 220.988h1.291v-39.703h-1.291v39.703z"/><path fill="#3E9679" d="M154.721 172.918h30.056a1.7 1.7 0 0 0 1.702-1.7v-20.181a1.7 1.7 0 0 0-1.702-1.7h-30.056a1.7 1.7 0 0 0-1.702 1.7v20.181a1.7 1.7 0 0 0 1.702 1.7z"/><path fill="#F5F7FF" d="M154.329 169.222h30.839v-18.611h-30.839v18.611z"/><path fill="#fff" d="M168.671 170.899a1.072 1.072 0 0 0 .666.996 1.08 1.08 0 0 0 1.471-.785 1.08 1.08 0 0 0-1.471-1.207 1.092 1.092 0 0 0-.584.584 1.081 1.081 0 0 0-.082.412z"/><path fill="#1D3B54" d="M162.823 179.058v-.42s.59-2.608 4.767-2.608c4.177 0 4.093 3.029 4.093 3.029l-8.86-.001z"/><path fill="#EACDB0" d="M171.734 176.416s-.908-.071-1.243-.271c-.336-.2-2.321-1.537-2.789-1.323-.467.215-3.576 1.165-3.468 1.615.108.45.395.41.621.33.227-.079 2.477-.554 2.677-.474 0 0-2.218.809-2.227 1.397-.008.589.464.734.674.957.21.222.463.777 1.035.819.571.042 3.356-.926 3.934-.971.578-.045 1.636.036 1.709-.057.072-.093-.923-2.022-.923-2.022z"/><path fill="#78C272" d="M188.254 161.224c2.893-.508 5.939-1.242 5.939-1.242l5.388-.218s4.945 1.096 6.891 1.966c.184.083.185 4.407.692 5.541l-1.616 3.403s-.932 6.742-1.126 9.74c-.09 1.376.248 13.301.248 13.301s-.483.239-4.161.645c-3.677.406-12.867-.147-12.929-.581-.062-.435 1.779-16.157 1.865-16.972.124-1.249-.362-7.024-.362-7.024-.692.93-2.459 5.129-4.3 7.126-1.084 1.175-6.446 1.896-7.46 1.93-2.2.073-6.216.51-6.331.297-.095-.124-.351-3.56-.099-3.643.221-.074 7.675-.497 9.584-1.515.699-.373 2.787-4.92 2.787-4.92s3.393-7.117 4.99-7.834z"/><path fill="#88A2B1" d="M198.872 193.374h9.046a3.274 3.274 0 0 0 3.276-3.273v-15.035a3.274 3.274 0 0 0-3.276-3.273h-9.046a3.274 3.274 0 0 0-3.276 3.273v15.035a3.274 3.274 0 0 0 3.276 3.273z"/><path fill="#88A2B1" d="M198.361 198.386c2.299 0 4.165-.771 5.544-2.294 3.118-3.439 2.558-9.483 2.532-9.739a.864.864 0 0 0-.955-.848.868.868 0 0 0-.761.662.872.872 0 0 0-.011.356c.007.069.504 5.549-2.094 8.409-1.051 1.158-2.443 1.72-4.255 1.72a.87.87 0 0 0 0 1.739v-.005z"/><path fill="#DFE1E8" d="M174.193 153.078h8.546a.243.243 0 0 0 .244-.243v-.497a.244.244 0 0 0-.244-.244h-8.546a.244.244 0 0 0-.244.244v.497c0 .134.11.243.244.243zm0 2.109h8.546a.244.244 0 0 0 .244-.244v-.496a.244.244 0 0 0-.244-.244h-8.546a.244.244 0 0 0-.244.244v.496c0 .135.11.244.244.244zm.577 12.554h7.392a.82.82 0 0 0 .821-.82v-9.479a.82.82 0 0 0-.821-.819h-7.392a.82.82 0 0 0-.821.819v9.479c0 .453.368.82.821.82zm-17.434 0h13.489c.718 0 1.299-.581 1.299-1.298v-13.051c0-.716-.581-1.298-1.299-1.298h-13.489a1.3 1.3 0 0 0-1.299 1.298v13.051c0 .717.582 1.298 1.299 1.298z"/><path fill="#609AE8" d="M202.103 40.991h-4.617v14.01h4.617v-14.01z"/><path fill="#9CC7FF" d="M217.702 19.64h-35.816c-1.12 0-2.028.907-2.028 2.026v24.048c0 1.119.908 2.026 2.028 2.026h35.816c1.12 0 2.028-.907 2.028-2.026V21.666a2.027 2.027 0 0 0-2.028-2.026z"/><path fill="#fff" d="M218.168 21.244H181.42v22.092h36.748V21.244z"/><path fill="#9CC7FF" d="M189.407 55.531h20.773v-1.058h-20.773v1.058z"/><path fill="#D7D7E6" d="M204.408 41.589h11.811V27.948h-11.811v13.64zM190.415 29.65h12.168v-1.7h-12.168v1.7zm0 3.49h12.168v-1.7h-12.168v1.7zm0 8.45h12.168v-7.015h-12.168v7.015zm-6.884-.001h5.163V27.56h-5.163v14.028zm.119-15.139h32.688v-3.504H183.65v3.503z"/><path fill="#9CC7FF" d="M85.513 46.943h16.362a1.94 1.94 0 0 0 1.941-1.939V20.293a1.94 1.94 0 0 0-1.941-1.94H85.513a1.94 1.94 0 0 0-1.94 1.94v24.711a1.94 1.94 0 0 0 1.94 1.939z"/><path fill="#fff" d="M84.691 43.138h18.006V19.675H84.691v23.463z"/><path fill="#D7D7E6" d="M85.901 24.484h15.671V21.36H85.901v3.124zm9.222 16.521h6.45v-15.31h-6.45v15.31zM85.9 27.468h8.023v-1.773h-8.022v1.773zm0 3.064h8.023V28.76h-8.022v1.773zm0 3.067h8.023v-1.774h-8.022V33.6zm0 7.406h8.023V34.89h-8.022v6.114z"/><path fill="#609AE8" d="M48.85 71.521H17.292V51.537a1.42 1.42 0 0 1 1.422-1.421h28.718a1.423 1.423 0 0 1 1.422 1.42v19.985h-.006z"/><path fill="#fff" d="M18.173 70.383h29.795V51.255H18.173v19.128z"/><path fill="#9CC7FF" d="M49.13 73.095H17.012a1.244 1.244 0 0 1-1.243-1.242v-.332H50.37v.332a1.242 1.242 0 0 1-1.243 1.242h.001z"/><path fill="#D7D7E6" d="M19.418 55.305h27.273v-2.66H19.418v2.66zM37.34 68.993h9.35V56.808h-9.35v12.185zm-10.548 0h9.35V56.808h-9.35v12.185zM19.42 58.55h5.701v-1.742H19.42v1.741zm0 2.689h5.701v-1.741H19.42v1.741zm0 7.754h5.701V62.19H19.42v6.803z"/><path fill="#AAD6AF" d="M188.888 128.01l9.969.041a1.516 1.516 0 0 0 1.402-.926c.077-.183.117-.38.117-.578l.089-20.788a1.512 1.512 0 0 0-1.507-1.518l-9.971-.042a1.513 1.513 0 0 0-1.519 1.505l-.087 20.788a1.508 1.508 0 0 0 .928 1.401c.184.076.38.116.579.117z"/><path fill="#fff" d="M189.909 124.476l7.956.034a1.417 1.417 0 0 0 1.003-.408c.132-.131.237-.286.308-.458a1.39 1.39 0 0 0 .11-.54l.066-15.715a1.416 1.416 0 0 0-.41-1 1.407 1.407 0 0 0-.997-.418l-7.957-.033a1.415 1.415 0 0 0-1.418 1.407l-.068 15.713a1.414 1.414 0 0 0 1.407 1.418z"/><path fill="#787878" d="M192.594 104.99l2.753.011a.204.204 0 0 1-.003.408l-2.752-.012a.204.204 0 1 1 .002-.407z"/><path fill="#fff" d="M192.999 126.109a.885.885 0 0 0 1.05.868.888.888 0 0 0 .696-.689.886.886 0 0 0-.371-.906.881.881 0 0 0-1.375.727z"/><path fill="#DCDFE3" d="M189.829 110.436h8.269v-3.33h-8.269v3.33zm0 2.248h8.269v-1.383h-8.269v1.383zm0 2.248h8.269v-1.383h-8.269v1.383zm0 8.262h8.269v-7.395h-8.269v7.395z"/><path fill="#EACDB0" d="M235.269 147.186s-.307-1.162.02-1.668c.327-.505.519-1.315.567-1.572.063-.344.655-1.383.218-1.407-.436-.025-1.054 1.676-1.253 2.017-.199.34-.746-1.152-1.075-1.318-.33-.167-2.958 1.198-2.456 2.165.503.966 1.741 1.583 1.793 1.774.095.248.207.488.335.721l1.851-.712z"/><path fill="#EACDB0" d="M233.921 143.429s-1.752-2.828-2.045-2.899c-.294-.07-.459.053-.307.326.151.273 1.605 2.792 1.605 2.792s-2.703-2.928-2.923-3.039c-.124-.065-.461.157-.395.313.065.155 2.552 3.229 2.552 3.229s-2.529-2.733-2.749-2.764c-.193-.031-.456.241-.285.459.172.217 2.354 2.898 2.354 2.898s-1.989-1.854-2.206-1.773c-.134.05-.428.23.101.69.53.461 1.645 1.693 1.645 1.693l2.653-1.925z"/><path fill="#323F56" d="M279.203 127.343h-74.021a2.796 2.796 0 0 0-2.798 2.794v11.645a2.796 2.796 0 0 0 2.798 2.794h74.021a2.795 2.795 0 0 0 2.797-2.794v-11.645a2.795 2.795 0 0 0-2.797-2.794z" opacity=".68"/><path fill="#E0E0E0" d="M218.913 133.878h-12.892v1.319h12.892v-1.319zm11.66 0h-9.153v1.319h9.153v-1.319zm-.607 4.966h-8.546v1.319h8.546v-1.319z"/><path fill="#58B25B" d="M276.418 133.878h-9.153v1.319h9.153v-1.319zm-31.721 0h-11.66v1.319h11.66v-1.319z"/><path fill="#AAD6AF" d="M264.982 133.878h-11.66v1.319h11.66v-1.319z"/><path fill="#E0E0E0" d="M251.121 133.878h-4.268v1.319h4.268v-1.319z"/><path fill="#58B25B" d="M212.698 138.844h-6.677v1.319h6.677v-1.319zm3.794 0h-2.155v1.319h2.155v-1.319z"/><path fill="#E0E0E0" d="M276.418 138.844h-17.82v1.319h17.82v-1.319z"/><path fill="#AAD6AF" d="M220.278 138.844h-2.201v1.319h2.201v-1.319z"/><path fill="#58B25B" d="M256.95 138.844h-5.829v1.319h5.829v-1.319zm-7.372 0h-12.405v1.319h12.405v-1.319z"/><path fill="#E0E0E0" d="M235.413 138.844h-4.268v1.319h4.268v-1.319z"/><path fill="#202338" d="M233.21 205.743s-1.683 1.689-3.132 1.87c-1.448.181-3.125.725-3.323 1.815-.198 1.089 4.288 2.248 6.053 1.396 2.637-1.273 3.402-.767 3.803-1.547.402-.78.327-3.471.388-3.726.077-.323-3.789.192-3.789.192zm29.732-4.777s-.488 2.31-1.561 3.197c-1.073.886-2.145 2.202-1.74 3.245.405 1.043 4.227.92 5.594-1.839.871-1.739 1.865-2.046 1.792-2.923-.074-.877-1.415-2.757-1.498-3.012-.106-.315-2.587 1.332-2.587 1.332z"/><path fill="#323F56" d="M244.583 167.896s-5.801 12.001-7.11 15.045c-1.213 2.821-2.462 7.886-2.629 9.867-.211 2.491-2.599 12.623-2.745 13.351-.147.728 5.056.29 5.056.29s4.532-17.263 5.733-19.708c.801-1.634 6.821-12.507 7.353-11.831.532.675 3.768 8.798 4.162 10.746.394 1.949 7.805 16.438 7.805 16.438s3.461-.249 4.142-1.57c0 0-5.528-14.686-6.142-17.36-.314-1.36-1.459-9.93-2.902-16.5-.742-3.376-12.723 1.232-12.723 1.232z"/><path fill="#AAD6AF" d="M259.276 149.618s-1.989 5.995-1.949 7.422c.04 1.427-1.106-6.976 1.949-7.422zm-14.16 2.216a14.557 14.557 0 0 1-.716 1.824 11.922 11.922 0 0 1-.727 1.323 7.392 7.392 0 0 1-.527.727c-.592.72-1.311 1.269-2.142 1.329-1.705.125-7.833-9.224-7.833-9.224l2.924-1.327s3.877 5.588 4.476 5.28c.599-.308 1.225-2.577 1.225-2.577.711-.391 1.797.695 2.53 1.591l.138.173c.394.488.652.881.652.881z"/><path fill="#AAD6AF" d="M257.662 167.628c-3.316 2.964-13.906 1.987-13.906 1.987.153-.373 1.226-11.397.852-13.889-.374-2.493-.164-4.609-.497-4.706-.334-.097-2.611-.891-2.611-.891s1.211-3.85 1.718-4.681c.507-.83 4.134-2.053 4.134-2.053s2.817-1.008 5.804-.655c4.992.588 5.595 2.056 5.595 2.056l-1.159 7.407v.08c0 .166-.02.581-.041 1.155-.085 2.381-.262 7.478-.287 8.694-.045 1.948.398 5.496.398 5.496z"/><path fill="#EACDB0" d="M253.983 142.871a7.586 7.586 0 0 1-.643.993c-1.559 2.007-3.365 1.936-3.365 1.936-1.107-.096-1.694-.811-2.002-1.454a3.625 3.625 0 0 1-.322-1.057l.658-.236c.057-.217.09-.441.096-.666.009-.141.013-.29.014-.443v-.55c-.019-.559-.063-1.023-.063-1.023s4.724-2.554 4.343-.753c-.177.823-.148 1.469-.03 1.946.139.568.408.894.61.994.435.21.704.313.704.313zm-13.582 3.638a.944.944 0 0 1-.29-.512c-.051-.48.43-1.1-.124-1.537-.555-.437-2.535.898-2.735 1.31-.201.412.34 1.222 1.616 1.995 1.275.772 1.533-1.256 1.533-1.256z"/><path fill="#EACDB0" d="M240.151 144.634a19.14 19.14 0 0 0-1.108-1.893c-.567-.849-1.367-1.749-1.596-1.593-.316.211.404.846.906 1.724.463.809.228.729.228.729s.068.02-.622-.764c-.738-.841-1.642-1.739-1.851-1.546-.131.116-.158.124.056.467-.169-.174-.249-.153-.33-.09-.439.328.439 1.739.789 2.29-.271-.426-.519-.71-.658-.346-.159.417 1.178 2.346 1.586 3.084.448.804 2.6-2.062 2.6-2.062z"/><path fill="#AAD6AF" d="M259.166 150.483c2.142-2.608-.509-5.837-.509-5.837-1.567-1.335-4.999 4.265-5.43 4.813-.431.548-3.714 3.477-4.63 4.471-.467.504-2.432-1.648-3.332-2.506-.54-.515-4.757-5.456-4.757-5.456s-2.903 2.095-2.66 1.917c.244-.177 8.596 10.748 10.146 10.83.001-.002 5.999-1.94 11.172-8.232z"/><path fill="#58B25B" d="M243.797 154.786c-.04.065-.081.131-.124.196a7.526 7.526 0 0 1-.527.728c-.403-.481-1.926-3.918-1.95-3.975l2.601 3.051zm13.015-1.764s-2.685 2.406-4.143 3.295c-1.459.889-3.892 2.101-4.164 2.207 0 0 6.445-1.257 8.307-5.502z"/><path fill="#EACDB0" d="M245.839 133.772s-1.027 1.901-.518 2.197c.421.248-.497 2.111-.613 2.416-.115.304.763.526.949.722.187.197.746 2.608 1.468 2.683.723.075 3.995-1.063 4.885-1.987.89-.924 1.616-5.102 1.027-6.863-.589-1.761-5.386-2.489-7.198.832z"/><path fill="#323F56" d="M245.633 134.184s-1.048-2.053.856-3.577c1.903-1.524 5.414 1.15 5.809 1.252.396.102 2.641.256 1.507 4.193-.973 3.38-1.109 3.523-1.109 3.523s-.726-1.959-1.138-2.257c-.642-.467-2.052-.355-2.052-.355s.671-1.781-.373-2.033-2.438-1.145-3.5-.746z"/><path fill="#EACDB0" d="M250.623 135.944c.094-.248.392-1.294 1.295-.677.902.617-.562 2.595-.719 2.621-.157.026-1.354.111-.576-1.944z"/><path fill="#A77860" d="M251.915 139.894s-.769 1.514-3.51 2.484c.009-.141.013-.29.014-.443v-.395c-.005.004 2.109-.574 3.496-1.646z"/><path fill="#EACDB0" d="M61.289 164.812s1.094.487 1.616.266c.522-.221 1.322-.263 1.575-.263.338 0 1.398-.373 1.38.034-.02.408-1.72.702-2.068.831-.349.13 1.041.895 1.17 1.234.127.339-1.44 2.568-2.325 1.933-.886-.634-1.368-1.902-1.544-1.987a6.495 6.495 0 0 1-.664-.437l.86-1.611z"/><path fill="#EACDB0" d="M64.791 166.716s2.566 2.126 2.61 2.413c.046.287-.094.421-.343.233a705.17 705.17 0 0 1-2.545-1.988s2.572 3.033 2.658 3.259c.05.132-.196.406-.34.317-.144-.089-2.878-2.945-2.878-2.945s2.396 2.838 2.408 3.051a.276.276 0 0 1-.33.259.276.276 0 0 1-.14-.072c-.192-.197-2.577-2.701-2.577-2.701s1.603 2.178 1.505 2.371c-.061.117-.264.362-.658-.213s-1.48-1.83-1.48-1.83l2.11-2.154z"/><path fill="#EBEBEB" d="M43.61 210.912s-.1 3.477.398 3.692c.497.215 2.382-1.001 3.214-2.199.832-1.199-1.042-3.986-1.349-5.523-.124-.644-1.593-1.803-2.306-1.471-.714.332-1.236 1.182-1.236 1.182s1.81 1.25 1.28 4.319z"/><path fill="#EACDB0" d="M42.325 206.599c.354.684.666 1.389.936 2.111.318.923.373 3.478.578 3.653.205.175 1.78-.621 1.99-1.573.21-.951-.43-2.864-1.039-3.867a6.29 6.29 0 0 0-1.23-1.507s-1.076.21-1.235 1.183z"/><path fill="#EBEBEB" d="M45.867 206.886l1.695 2.473-.32.221-1.312-1.912-.063-.782z"/><path fill="#EACDB0" d="M36.23 184.218s.968 5.127.968 6.354c0 1.227.334 3.229 1.119 4.719.784 1.491 4.208 11.64 4.505 12.823.297 1.182.552 2.3.552 2.3s1.71-.781 1.71-1.896c0-1.114-1.49-10.329-1.747-12.15-.256-1.82-2.417-11.145-2.417-11.145l-4.69-1.005z"/><path fill="#EACDB0" d="M41.698 183.884s-.334 4.272-.297 5.388c.038 1.115.557 3.64.557 4.309 0 .67 0 14.531-.554 16.198-.555 1.667 1.559.522 1.559.522s3.682-9.115 3.682-12.917c0-3.801-.446-5.697-.186-8.111.26-2.415 1.897-5.611 1.897-5.611l-6.658.222zm-.604-55.965s-3.422 3.444-2.256 7.878c1.166 4.434 3.037 4.459 5.097 2.551 2.06-1.907 3.28-3.913 3.552-6.143.272-2.229-3.269-7.362-6.393-4.286z"/><path fill="#EACDB0" d="M40.424 142.707c.34-.802.629-1.625.863-2.465.063-.23.124-.464.17-.698.175-.822.249-1.632.059-2.187-.546-1.615 3.421-.497 3.421-.497s-.768 4.261 0 5.698c.768 1.437-4.513.149-4.513.149z"/><path fill="#323F56" d="M47.268 163.318s2.464 3.623 2.984 6.856c.52 3.233-.46 8.043-.864 9.811-.355 1.548-.884 6.356-.922 6.876 0 0-7.736 2.006-12.794.409 0 0-.784-7.938-1.081-10.874-.297-2.936 1.765-12.851 1.765-12.851l10.912-.227z"/><path fill="#DCDFE3" d="M61.98 165.002l-1.388 1.571s-8.294-6.725-8.666-7.617c-.371-.892-3.182-5.912-3.293-6.432 0 0-.538 1.39-.986 2.743-.185.563-.426 1.588-.536 2.035-.373 1.522-.414 3.963.157 6.019 0 0-6.72 2.502-10.91.223 0 0 .446-3.642-.223-5.995-.669-2.354-4.166-10.557-4.166-10.557s1.865-3.443 3.794-4.112c1.93-.67 4.14-1.169 4.14-1.169h4.585s3.017.785 3.693.994c1.207.381 2.332 1.911 2.554 3.286.223 1.375 3.386 10.763 3.757 11.024.372.261 7.488 7.987 7.488 7.987z"/><path fill="#EACDB0" d="M34.812 160.535s2.975.115 3.439 0c.464-.116 3.55-1.453 3.736-2.775.186-1.321-7.175 1.185-7.175 1.185v1.59z"/><path fill="#fff" d="M39.658 213.994s-2.3 2.679-2.041 3.161c.259.482 2.515.728 3.934.313 1.418-.415 1.72-3.802 2.46-5.209.308-.588-.106-2.433-.88-2.625-.775-.193-1.727.145-1.727.145s.638 2.135-1.746 4.215z"/><path fill="#EACDB0" d="M41.404 209.779c-.157.764-.36 1.518-.608 2.258-.338.929-1.92 2.981-1.875 3.245.045.265 1.795.645 2.57.026.777-.618 1.493-2.528 1.648-3.706a8.769 8.769 0 0 0 .075-1.94s-1.064-.549-1.81.117z"/><path fill="#fff" d="M44.01 212.259l-.242 3.028-.392-.031.186-2.341.448-.656z"/><path fill="#4C5285" d="M44.044 156.405l-12.075-1.411 5.454 4.434 6.621-3.023z"/><path fill="#DCDFE3" d="M35.175 158.834s-.124 1.536 0 1.863c0 0-7.447-.745-8.14-1.783-.694-1.038-.67-2.304-.67-2.304l8.81 2.224z"/><path fill="#323F56" d="M42.21 130.397s1.637 2.972 2.652 4.038c1.016 1.065.898 1.91.898 1.91s3.962-4.884 1.136-7.825c-2.826-2.941-6.472-1.758-7.539.818-1.066 2.575-.675 5.723-.675 5.723s.031-3.03 3.527-4.664z"/><path fill="#323F56" d="M43.29 127.285s-.397-2.176 3.02-3.042c3.416-.865 4.95 3.067 4.53 5.465-.42 2.398-3.342 8.481-1.758 9.273 1.584.791 2.203-.916 2.203-.916s-.497 2.993-2.698 2.3c-2.2-.693-1.906-5.554-1.574-7.492.332-1.939-3.723-5.588-3.723-5.588z"/><path fill="#88A2B1" d="M39.903 141.712s.315-.911.281-1.126c0 0 4.314-.267 5.422-.103 0 0 .088 1.221.077 1.49-.011.27-5.003 1.114-5.78-.261z"/><path fill="#323657" d="M37.423 159.428l6.621-2.254v-.769l-6.844 2.194.223.829zm0 0l-3.52-13.079-13.39-1.412 3.67 12.038 13.24 2.453z"/><path fill="#A77860" d="M44.39 137.917c-.014.031-.878 2.017-3.108 2.325.063-.23.124-.464.17-.698.005 0 1.225.245 2.938-1.627z"/><path fill="#CFBEB8" d="M48.633 152.52s-.538 1.39-.986 2.744a23.811 23.811 0 0 1 .158-6.831c.05 2.037.828 4.087.828 4.087z"/><path fill="#EDDAD3" d="M43.822 126.83s2.424.466 3.634 2.44c0 0-.249-1.787-1.452-2.303a3.105 3.105 0 0 0-2.182-.137z"/><path fill="#fff" d="M202.964 92.649a3.19 3.19 0 0 1-1.849-.746 2.393 2.393 0 0 1-.879-1.829c-.096-1.366-.521-2.768-.87-3.732a6.422 6.422 0 0 1-2.032-7.232 6.425 6.425 0 0 1 6.225-4.211 6.431 6.431 0 0 1 5.968 4.569 6.417 6.417 0 0 1-2.453 7.1c-.479 1.303-.767 2.496-.856 3.546-.016 1.414-1.367 2.553-3.006 2.542a2.304 2.304 0 0 1-.248-.007zm.851-17.207a5.906 5.906 0 0 0-5.952 3.758 5.896 5.896 0 0 0 1.886 6.777l.058.046.026.07c.373.994.827 2.498.929 3.956v.019a1.878 1.878 0 0 0 .696 1.437 2.702 2.702 0 0 0 1.753.62c1.358.01 2.469-.9 2.476-2.03v-.02c.094-1.117.402-2.39.917-3.772l.028-.078.07-.047a5.887 5.887 0 0 0 .431-9.403 5.902 5.902 0 0 0-3.319-1.34l.001.007z"/><path fill="#fff" d="M201.771 90.459l-.841-6.999 1.46 1.208.907-1.005.782.943 1.365-1.157-.831 7.01-.522-.062.674-5.684-.751.636-.735-.883-.835.927-.836-.69.685 5.693-.522.063zm3.709 1.589l-4.559-.031-.013 1.835 4.559.031.013-1.835z"/><path fill="#fff" d="M206.225 90.18l-6.026-.041-.02 2.955 6.026.04.02-2.954z"/><path fill="#0E2D3D" d="M77.217 126.42s-3.114 1.522-2.345 5.662c.77 4.141 1.11 4.698.25 6.316-.862 1.618-1.88 8.517-1.104 9.825.776 1.308 9.596-5.747 10.816-11.667 1.221-5.92-.774-8.552-1.48-9.533-.707-.982-3.388-1.998-6.137-.603z"/><path fill="#285173" d="M76.354 141.361s-1.585.323-2.475 1.632c-.622.911-.67 2.934-.758 3.315-.089.381-1.273 4.691-1.273 4.691l3.303 2.212 1.203-11.85z"/><path fill="#1D3B54" d="M64.154 215.09s-2.155 2.897-1.864 3.353c.29.456 2.562.525 3.94 0 1.38-.525 1.413-3.921 2.037-5.38.261-.611-.297-2.415-1.084-2.545-.787-.13-1.641.248-1.641.248s.82 2.065-1.388 4.324z"/><path fill="#EACDB0" d="M65.533 210.752c-.28.783-.488 1.59-.621 2.412-.138.977-1.536 3.052-1.47 3.314.066.262 1.839.497 2.561-.176s1.188-2.644 1.347-3.822a9.48 9.48 0 0 1 .335-1.636s-1.463-.814-2.152-.092z"/><path fill="#1D3B54" d="M82.91 215.135s-2.076 2.849-1.782 3.308c.295.46 2.563.525 3.941 0 1.379-.525 1.412-3.921 2.037-5.38.26-.611-.297-2.414-1.084-2.545-.787-.13-1.707.281-1.707.281s.804 2.079-1.405 4.336z"/><path fill="#EACDB0" d="M84.314 210.802a19.288 19.288 0 0 1-.427 2.297c-.263.951-1.675 3.117-1.609 3.379.066.262 1.839.497 2.561-.176s1.282-2.636 1.347-3.822a6.286 6.286 0 0 0-.165-1.958s-1.012-.441-1.707.28z"/><path fill="#EACDB0" d="M73.935 163.622s-1.85 8.593-2.274 10.757c-.424 2.163-1.616 12.642-1.74 14.424-.125 1.782-1.93 8.495-1.844 9.132.086.638-2.673 13.414-2.673 13.414s.942.756 1.934.068c.512-.354 6.049-11.968 6.049-15.152 0-4.398 3.256-10.139 3.676-11.123 3.902-9.141 3.134-11.937 3.644-12.53.51-.594.553.372.85 1.683.297 1.31.934 12.684 1.317 14.126.383 1.442.084 6.321.297 8.782.212 2.46 1.145 13.591 1.145 13.591s.722 1.13 1.74.029c.22-.237 1.75-12.398 1.792-15.326.042-2.927.088-6.965.17-8.23.78-12.124 2.71-13.854-.333-22.433-5.701-16.081-13.75-1.212-13.75-1.212z"/><path fill="#1D3B54" d="M86.352 161.22s5.268 7.365 3 23.034c0 0-12.494 1.698-19.189-1.965 0 0 2.769-16.153 3.772-18.667 1.003-2.513 12.417-2.402 12.417-2.402zM68.33 212.811v3.034h-.395V213.5l.394-.689zm18.833 0v3.034h-.394V213.5l.394-.689z"/><path fill="#DCDFE3" d="M79.282 140.29s-1.94.917-2.61 1.051c-.67.134-3.289 3.527-3.748 4.767-.458 1.239 0 3.096.944 5.277s.055 2.909.486 5.092.808 6.8.727 8.011c-.08 1.211 10.903 1.44 13.41-.768 0 0-2.52-3.769-2.844-4.308-.323-.539-.053-3.478.243-4.223.296-.745 2.27-7.165 2.27-7.165s1.616-4.924.157-6.056c-1.267-.983-4.725-1.334-5.346-1.548-.622-.215-2.422-.317-3.689-.13z"/><path fill="#88A2B1" d="M78.67 144.613l-1.18-1.379 1.024-3.632s.337 2.023.155 5.011z"/><path fill="#EACDB0" d="M78.356 138.054a83.248 83.248 0 0 0 .201 2.136c.079.979.143 2.039.106 2.578 0 0 2.017 2.02 4.31-2.36 0 0-.966-1.803-.238-4.261.727-2.458-4.379 1.907-4.379 1.907z"/><path fill="#EACDB0" d="M78.662 142.768v1.845l2.32-1.733-2.32-.112z"/><path fill="#88A2B1" d="M78.662 144.613l.963-1.193 3.246-3.231 1.05 1.011-5.26 3.413z"/><path fill="#24669E" d="M83.323 140.5s-2.724 4.129-2.86 5.946c-.135 1.817 1.013 15.414 1.928 19.785.915 4.37 7.525-.497 7.525-.497s-4.441-7.184-2.735-12.935c1.707-5.752 2.325-8.051 2.325-8.051s-.587-3.203-2.665-3.654c-1.82-.39-3.518-.594-3.518-.594zm-10.581 6.16s-.498 1.738 1.423 5.575c0 0-.031 4.913-.085 6.448-.053 1.535-1.14 7.055-1.14 7.055l2.611 1.391c.086.05.184.076.284.074a.539.539 0 0 0 .517-.598c-.536-4.418-2.28-21.172 1.492-25.676l-1.512.445s-2.687 2.196-3.59 5.286z"/><path fill="#88A2B1" d="M77.483 143.233l-1.487.41 2.51-4.041-1.023 3.631zm2.142.187l1.358 1.778 2.787-4.64-.899-.369-3.246 3.231z"/><path fill="#EB4747" d="M76.555 150.503l-3.603 4.528.383.304 3.603-4.528-.383-.304z"/><path fill="#EACDB0" d="M77.885 154.65a1.044 1.044 0 0 1-.572-.164c-.39-.294-.532-1.019-1.222-.966-.69.054-1.01 2.215-.837 2.624.173.41 1.131.614 2.547.332 1.417-.282.084-1.826.084-1.826z"/><path fill="#EACDB0" d="M76.328 153.532a21.919 21.919 0 0 0-2.137-.586c-1.006-.216-2.205-.287-2.322-.113-.125.194.978.361 1.963.64.906.257.69.351.69.351s.06-.03-.975-.124c-1.113-.104-2.259-.102-2.372.124-.055.108-.016.181.384.283-.24-.011-.275.051-.283.148-.049.497 1.575.899 2.219 1.057-.498-.124-.87-.154-.691.181.203.384 2.52.849 3.336 1.091.892.256.188-3.052.188-3.052z"/><path fill="#24669E" d="M86.46 141.173c.682-.22 2.684.489 3.024 2.541.34 2.051.474 4.33.79 5.436.315 1.105 1.118 6.001.444 6.407-.673.406-1.96.776-3.76.776-1.856 0-9.06.323-9.06.323l-.452-2.556s2.735-.141 4.153-.355c1.262-.191 3.011-.728 5.07-.954 0 0-.436-3.033-.752-3.89-.316-.857-2.524-6.736.542-7.728z"/><path fill="#EEA886" d="M73.284 154.296l-.339.822.724-.518-.385-.304z"/><path fill="#EACDB0" d="M77.252 158.584l-7.256-1.439-5.381-11.501 7.745.812 4.892 12.128z"/><path fill="#EACDB0" d="M69.096 155.194a5.948 5.948 0 0 1-.752-.885c-.354-.517-1.513-2.484-1.407-2.608.106-.124 1.828-.165 2.14.114.312.279-.308.391-.308.391s.942.097.87.363c-.07.266-.633.191-.633.191s.757.145.642.373c-.114.227-.478.229-.478.229s.671.085.588.34c-.084.254-1.145.496-1.004.705.137.252.251.516.342.787zm8.578-28.316s-4.521 1.421-2.067 9.216c2.454 7.794 8.63-.903 7.984-5.652-.646-4.75-5.916-3.564-5.916-3.564z"/><path fill="#0E2D3D" d="M75.138 131.425s2.248 2.203 6.008 2.484c0 0 1.445 1.693 1.556 2.36 0 0 3.357-5.713-.77-9.137-4.126-3.424-8.31 2.885-6.794 4.293z"/><path fill="#EACDB0" d="M81.1 134.061c.03-.568.38-1.863 1.224-1.491.844.373-.052 2.991-.611 2.83 0 0-.682 0-.612-1.339z"/><path fill="#A77860" d="M78.471 139.212c.028.297.058.633.086.978 2.611-1.29 3.015-3.15 3.028-3.207-1.864 2.405-3.114 2.229-3.114 2.229z"/></g><defs><filter id="a" width="292" height="235.319" x="0" y="0" color-interpolation-filters="sRGB" filterUnits="userSpaceOnUse"><feFlood flood-opacity="0" result="BackgroundImageFix"/><feColorMatrix in="SourceAlpha" values="0 0 0 0 0 0 0 0 0 0 0 0 0 0 0 0 0 0 127 0"/><feOffset dy="3"/><feGaussianBlur stdDeviation="5"/><feColorMatrix values="0 0 0 0 0.215686 0 0 0 0 0.27451 0 0 0 0 0.372549 0 0 0 0.15 0"/><feBlend in2="BackgroundImageFix" result="effect1_dropShadow"/><feBlend in="SourceGraphic" in2="effect1_dropShadow" result="shape"/></filter></defs></svg>