<svg width="268" height="277" fill="none" xmlns="http://www.w3.org/2000/svg"><g filter="url(#filter0_d)"><path opacity=".28" d="M223.637 263.442H68.395c-5.738 0-10.395-4.657-10.395-10.396v-89.552c0-5.739 4.657-10.395 10.395-10.395h155.242c5.739 0 10.396 4.656 10.396 10.395v89.552c0 5.739-4.649 10.396-10.396 10.396z" fill="#A4A4A4"/><path d="M225.68 260.393H66.353c-5.739 0-10.396-4.656-10.396-10.395v-92.121c0-5.739 4.657-10.395 10.396-10.395H225.68c5.738 0 10.395 4.656 10.395 10.395v92.113c0 5.747-4.649 10.403-10.395 10.403z" fill="#F0F0F0"/><path d="M225.68 258.983H66.353c-5.739 0-10.396-4.656-10.396-10.395v1.41c0 5.739 4.657 10.395 10.396 10.395H225.68c5.738 0 10.395-4.656 10.395-10.395v-1.41c0 5.739-4.649 10.395-10.395 10.395zM217.868 226.097H74.173a3.662 3.662 0 0 1-3.666-3.666v-59.142a3.662 3.662 0 0 1 3.666-3.666h143.695a3.662 3.662 0 0 1 3.665 3.666v59.142a3.672 3.672 0 0 1-3.665 3.666z" fill="#F0F0F0"/><path d="M217.868 225.068H74.173a3.663 3.663 0 0 1-3.666-3.666v-58.121a3.663 3.663 0 0 1 3.666-3.666h143.695a3.662 3.662 0 0 1 3.665 3.666v58.121a3.667 3.667 0 0 1-3.665 3.666z" fill="#F0F0F0"/><path d="M136.752 210.671h7.309c.42 0 .763-.343.763-.762v-6.715a.765.765 0 0 0-.763-.762h-7.309a.764.764 0 0 0-.762.762v6.715c0 .419.343.762.762.762zm-11.981 0h7.309c.42 0 .763-.343.763-.762v-6.715a.765.765 0 0 0-.763-.762h-7.309a.764.764 0 0 0-.762.762v6.715c0 .419.343.762.762.762zm-47.939-31.675h7.31c.419 0 .762-.343.762-.762v-6.714a.764.764 0 0 0-.763-.762h-7.309a.764.764 0 0 0-.762.762v6.714c0 .419.343.762.763.762zm47.939 9.969h7.309c.42 0 .763-.343.763-.762v-6.714a.765.765 0 0 0-.763-.763h-7.309a.765.765 0 0 0-.762.763v6.714c0 .419.343.762.762.762zm0 10.853h7.309c.42 0 .763-.343.763-.762v-6.714a.765.765 0 0 0-.763-.763h-7.309a.765.765 0 0 0-.762.763v6.714c0 .419.343.762.762.762zm0-30.531h7.309c.42 0 .763-.343.763-.763v-3.521a.765.765 0 0 0-.763-.762h-7.309a.764.764 0 0 0-.762.762v3.521c0 .42.343.763.762.763zm0 9.709h7.309c.42 0 .763-.343.763-.762v-6.714a.765.765 0 0 0-.763-.762h-7.309a.764.764 0 0 0-.762.762v6.714c0 .419.343.762.762.762zm-47.939-9.709h7.31c.419 0 .762-.343.762-.763v-3.521a.764.764 0 0 0-.763-.762h-7.309a.764.764 0 0 0-.762.762v3.521c0 .42.343.763.763.763zm19.29 11.439h-19.29a.765.765 0 0 0-.762.763v6.714c0 .419.343.762.763.762h19.29c.419 0 .762-.343.762-.762v-6.714a.765.765 0 0 0-.763-.763zm0 10.853h-7.309a.765.765 0 0 0-.762.763v6.714c0 .419.343.762.762.762h7.31c.419 0 .762-.343.762-.762v-6.714a.765.765 0 0 0-.763-.763zm-11.98 10.853h-7.31a.764.764 0 0 0-.762.762v6.715c0 .419.343.762.763.762h7.308c.42 0 .763-.343.763-.762v-6.715a.764.764 0 0 0-.763-.762zm11.98-31.674h-7.309a.764.764 0 0 0-.762.762v6.714c0 .419.343.762.762.762h7.31c.419 0 .762-.343.762-.762v-6.714a.764.764 0 0 0-.763-.762zm0 31.674h-7.309a.764.764 0 0 0-.762.762v6.715c0 .419.343.762.762.762h7.31c.419 0 .762-.343.762-.762v-6.715a.764.764 0 0 0-.763-.762zm-11.98-10.853h-7.31a.765.765 0 0 0-.762.763v6.714c0 .419.343.762.763.762h7.308c.42 0 .763-.343.763-.762v-6.714a.765.765 0 0 0-.763-.763zm11.98 21.706h-7.309a.764.764 0 0 0-.762.762v6.715c0 .419.343.762.762.762h7.31c.419 0 .762-.343.762-.762v-6.715a.764.764 0 0 0-.763-.762zm64.6-13.467h7.309a.764.764 0 0 0 .762-.762v-6.714a.765.765 0 0 0-.762-.763h-7.309a.765.765 0 0 0-.762.763v6.714c0 .419.343.762.762.762zm-23.97 0h7.309c.42 0 .763-.343.763-.762v-6.714a.765.765 0 0 0-.763-.763h-7.309a.765.765 0 0 0-.762.763v6.714c0 .419.343.762.762.762zm23.97-10.853h7.309a.764.764 0 0 0 .762-.762v-6.714a.765.765 0 0 0-.762-.763h-7.309a.765.765 0 0 0-.762.763v6.714c0 .419.343.762.762.762zm-11.989-19.678h7.309a.765.765 0 0 0 .762-.763v-3.521a.764.764 0 0 0-.762-.762h-7.309a.764.764 0 0 0-.762.762v3.521c0 .42.343.763.762.763zm11.989 41.384h7.309a.764.764 0 0 0 .762-.762v-6.715a.764.764 0 0 0-.762-.762h-7.309a.764.764 0 0 0-.762.762v6.715c0 .419.343.762.762.762zm35.95-41.384h7.309a.765.765 0 0 0 .762-.763v-3.521a.764.764 0 0 0-.762-.762h-7.309a.764.764 0 0 0-.762.762v3.521c0 .42.343.763.762.763zm-35.95 0h7.309a.765.765 0 0 0 .762-.763v-3.521a.764.764 0 0 0-.762-.762h-7.309a.764.764 0 0 0-.762.762v3.521c0 .42.343.763.762.763zm0 9.709h7.309a.764.764 0 0 0 .762-.762v-6.714a.764.764 0 0 0-.762-.762h-7.309a.764.764 0 0 0-.762.762v6.714c0 .419.343.762.762.762zm-64.6-14.755h-7.309a.764.764 0 0 0-.762.762v3.521c0 .42.343.763.762.763h7.31c.419 0 .762-.343.762-.763v-3.521a.764.764 0 0 0-.763-.762zm40.63 14.755h7.309c.42 0 .763-.343.763-.762v-6.714a.765.765 0 0 0-.763-.762h-7.309a.764.764 0 0 0-.762.762v6.714c0 .419.343.762.762.762zm11.981 0h7.309a.764.764 0 0 0 .762-.762v-6.714a.764.764 0 0 0-.762-.762h-7.309a.764.764 0 0 0-.762.762v6.714c0 .419.343.762.762.762zm-11.981 9.969h7.309c.42 0 .763-.343.763-.762v-6.714a.765.765 0 0 0-.763-.763h-7.309a.765.765 0 0 0-.762.763v6.714c0 .419.343.762.762.762zm0-19.678h7.309c.42 0 .763-.343.763-.763v-3.521a.765.765 0 0 0-.763-.762h-7.309a.764.764 0 0 0-.762.762v3.521c0 .42.343.763.762.763zm11.981 41.384h7.309a.764.764 0 0 0 .762-.762v-6.715a.764.764 0 0 0-.762-.762h-7.309a.764.764 0 0 0-.762.762v6.715c0 .419.343.762.762.762zm0-21.706h7.309a.764.764 0 0 0 .762-.762v-6.714a.765.765 0 0 0-.762-.763h-7.309a.765.765 0 0 0-.762.763v6.714c0 .419.343.762.762.762zm0 10.853h7.309a.764.764 0 0 0 .762-.762v-6.714a.765.765 0 0 0-.762-.763h-7.309a.765.765 0 0 0-.762.763v6.714c0 .419.343.762.762.762zm-64.592 13.467h-7.309a.764.764 0 0 0-.762.762v6.715c0 .419.343.762.763.762h7.308c.42 0 .763-.343.763-.762v-6.715a.764.764 0 0 0-.763-.762zm107.852-21.706h-7.309a.765.765 0 0 0-.762.763v6.714c0 .419.343.762.762.762h7.309a.764.764 0 0 0 .762-.762v-6.714a.765.765 0 0 0-.762-.763zm0-10.853h-7.309a.765.765 0 0 0-.762.763v6.714c0 .419.343.762.762.762h7.309a.764.764 0 0 0 .762-.762v-6.714a.765.765 0 0 0-.762-.763zm11.988 32.559h-7.309a.764.764 0 0 0-.762.762v6.715c0 .419.343.762.762.762h7.309a.764.764 0 0 0 .762-.762v-6.715a.764.764 0 0 0-.762-.762zm-11.988-49.044h-7.309a.764.764 0 0 0-.762.762v3.521c0 .42.343.763.762.763h7.309a.765.765 0 0 0 .762-.763v-3.521a.764.764 0 0 0-.762-.762zm0 6.517h-7.309a.764.764 0 0 0-.762.762v6.714c0 .419.343.762.762.762h7.309a.764.764 0 0 0 .762-.762v-6.714a.764.764 0 0 0-.762-.762zm-11.981 0h-7.309a.764.764 0 0 0-.762.762v6.714c0 .419.343.762.762.762h7.309a.764.764 0 0 0 .762-.762v-6.714a.764.764 0 0 0-.762-.762zm0-6.517h-7.309a.764.764 0 0 0-.762.762v3.521c0 .42.343.763.762.763h7.309a.765.765 0 0 0 .762-.763v-3.521a.764.764 0 0 0-.762-.762zm11.981 49.044h-7.309a.764.764 0 0 0-.762.762v6.715c0 .419.343.762.762.762h7.309a.764.764 0 0 0 .762-.762v-6.715a.764.764 0 0 0-.762-.762zm0-10.853h-7.309a.764.764 0 0 0-.762.762v6.715c0 .419.343.762.762.762h7.309a.764.764 0 0 0 .762-.762v-6.715a.764.764 0 0 0-.762-.762zm23.969-31.674h-19.29a.764.764 0 0 0-.762.762v6.714c0 .419.343.762.762.762h19.29a.764.764 0 0 0 .762-.762v-6.714a.764.764 0 0 0-.762-.762zm0-6.517h-7.309a.764.764 0 0 0-.762.762v3.521c0 .42.343.763.762.763h7.309a.765.765 0 0 0 .762-.763v-3.521a.764.764 0 0 0-.762-.762zm0 16.485h-19.29a.765.765 0 0 0-.762.763v6.714c0 .419.343.762.762.762h10.457c.419 0 .762.343.762.762v9.329c0 .419.343.762.762.762h7.309a.764.764 0 0 0 .762-.762v-17.567a.765.765 0 0 0-.762-.763zm-107.851 32.559h-7.309a.764.764 0 0 0-.762.762v6.715c0 .419.343.762.762.762h7.309a.764.764 0 0 0 .762-.762v-6.715a.764.764 0 0 0-.762-.762zm95.87-10.853h-7.309a.764.764 0 0 0-.762.762v6.715c0 .419.343.762.762.762h7.309a.764.764 0 0 0 .762-.762v-6.715a.764.764 0 0 0-.762-.762zm0-10.853h-7.309a.765.765 0 0 0-.762.763v6.714c0 .419.343.762.762.762h7.309a.764.764 0 0 0 .762-.762v-6.714a.765.765 0 0 0-.762-.763zm11.981 21.706h-7.309a.764.764 0 0 0-.762.762v6.715c0 .419.343.762.762.762h7.309a.764.764 0 0 0 .762-.762v-6.715a.764.764 0 0 0-.762-.762zm0-10.853h-7.309a.764.764 0 0 0-.762.762v6.715c0 .419.343.762.762.762h7.309a.764.764 0 0 0 .762-.762v-6.715a.764.764 0 0 0-.762-.762zm-95.87 0h-7.309a.764.764 0 0 0-.762.762v6.715c0 .419.343.762.762.762h7.309a.764.764 0 0 0 .762-.762v-6.715a.764.764 0 0 0-.762-.762zm-11.981-31.674h-7.309a.764.764 0 0 0-.762.762v6.714c0 .419.343.762.762.762h7.309a.764.764 0 0 0 .762-.762v-6.714a.764.764 0 0 0-.762-.762zm11.981 42.527h-7.309a.764.764 0 0 0-.762.762v6.715c0 .419.343.762.762.762h7.309a.764.764 0 0 0 .762-.762v-6.715a.764.764 0 0 0-.762-.762zm-11.981-49.044h-7.309a.764.764 0 0 0-.762.762v3.521c0 .42.343.763.762.763h7.309a.765.765 0 0 0 .762-.763v-3.521a.764.764 0 0 0-.762-.762zm71.901 16.485h-7.309a.765.765 0 0 0-.762.763v6.714c0 .419.343.762.762.762h7.309a.764.764 0 0 0 .762-.762v-6.714a.765.765 0 0 0-.762-.763zm-71.901 21.706h-7.309a.764.764 0 0 0-.762.762v6.715c0 .419.343.762.762.762h7.309a.764.764 0 0 0 .762-.762v-6.715a.764.764 0 0 0-.762-.762zm0-10.853h-7.309a.765.765 0 0 0-.762.763v6.714c0 .419.343.762.762.762h7.309a.764.764 0 0 0 .762-.762v-6.714a.765.765 0 0 0-.762-.763zm0-10.853h-7.309a.765.765 0 0 0-.762.763v6.714c0 .419.343.762.762.762h7.309a.764.764 0 0 0 .762-.762v-6.714a.765.765 0 0 0-.762-.763zm11.981 10.853h-7.309a.765.765 0 0 0-.762.763v6.714c0 .419.343.762.762.762h7.309a.764.764 0 0 0 .762-.762v-6.714a.765.765 0 0 0-.762-.763zm59.92 0h-7.309a.765.765 0 0 0-.762.763v6.714c0 .419.343.762.762.762h7.309a.764.764 0 0 0 .762-.762v-6.714a.765.765 0 0 0-.762-.763zm0 21.706h-55.241a.764.764 0 0 0-.762.762v6.715c0 .419.343.762.762.762h55.241a.764.764 0 0 0 .762-.762v-6.715a.764.764 0 0 0-.762-.762zm0-10.853h-7.309a.764.764 0 0 0-.762.762v6.715c0 .419.343.762.762.762h7.309a.764.764 0 0 0 .762-.762v-6.715a.764.764 0 0 0-.762-.762zm-59.92-21.706h-7.309a.765.765 0 0 0-.762.763v6.714c0 .419.343.762.762.762h7.309a.764.764 0 0 0 .762-.762v-6.714a.765.765 0 0 0-.762-.763zm0-9.968h-7.309a.764.764 0 0 0-.762.762v6.714c0 .419.343.762.762.762h7.309a.764.764 0 0 0 .762-.762v-6.714a.764.764 0 0 0-.762-.762zm0-6.517h-7.309a.764.764 0 0 0-.762.762v3.521c0 .42.343.763.762.763h7.309a.765.765 0 0 0 .762-.763v-3.521a.764.764 0 0 0-.762-.762z" fill="#AAD6AF"/><path d="M76.832 164.378h7.31c.419 0 .762.343.762.763v-.138a.764.764 0 0 0-.763-.762h-7.309a.764.764 0 0 0-.762.762v.138c0-.42.343-.763.763-.763zM76.832 170.895h7.31c.419 0 .762.343.762.762v-.137a.764.764 0 0 0-.763-.762h-7.309a.764.764 0 0 0-.762.762v.137c0-.419.343-.762.763-.762zM124.771 202.569h7.309c.42 0 .763.343.763.763v-.138a.765.765 0 0 0-.763-.762h-7.309a.764.764 0 0 0-.762.762v.138c0-.42.343-.763.762-.763zM124.771 180.871h7.309c.42 0 .763.343.763.762v-.137a.765.765 0 0 0-.763-.762h-7.309a.764.764 0 0 0-.762.762v.137c0-.419.343-.762.762-.762zM124.771 170.895h7.309c.42 0 .763.343.763.762v-.137a.765.765 0 0 0-.763-.762h-7.309a.764.764 0 0 0-.762.762v.137c0-.419.343-.762.762-.762zM124.771 191.717h7.309c.42 0 .763.342.763.762v-.138a.765.765 0 0 0-.763-.762h-7.309a.764.764 0 0 0-.762.762v.138c0-.42.343-.762.762-.762zM84.141 213.285h-7.309a.764.764 0 0 0-.762.762v.137c0-.419.343-.762.763-.762h7.308c.42 0 .763.343.763.762v-.137a.764.764 0 0 0-.763-.762zM96.122 191.579h-7.309a.764.764 0 0 0-.762.762v.138c0-.42.343-.762.762-.762h7.31c.419 0 .762.342.762.762v-.138a.764.764 0 0 0-.763-.762zM84.141 202.432h-7.309a.764.764 0 0 0-.762.762v.138c0-.42.343-.763.763-.763h7.308c.42 0 .763.343.763.763v-.138a.764.764 0 0 0-.763-.762zM124.771 164.378h7.309c.42 0 .763.343.763.763v-.138a.765.765 0 0 0-.763-.762h-7.309a.764.764 0 0 0-.762.762v.138c0-.42.343-.763.762-.763zM96.122 170.758h-7.309a.764.764 0 0 0-.762.762v.137c0-.419.343-.762.762-.762h7.31c.419 0 .762.343.762.762v-.137a.764.764 0 0 0-.763-.762zM96.122 180.726h-19.29a.764.764 0 0 0-.762.762v.138c0-.42.343-.763.763-.763h19.29c.419 0 .762.343.762.763v-.138a.764.764 0 0 0-.763-.762zM84.141 191.579h-7.309a.764.764 0 0 0-.762.762v.138c0-.42.343-.762.763-.762h7.308c.42 0 .763.342.763.762v-.138a.764.764 0 0 0-.763-.762zM96.122 213.285h-7.309a.764.764 0 0 0-.762.762v.137c0-.419.343-.762.762-.762h7.31c.419 0 .762.343.762.762v-.137a.764.764 0 0 0-.763-.762zM96.122 202.432h-7.309a.764.764 0 0 0-.762.762v.138c0-.42.343-.763.762-.763h7.31c.419 0 .762.343.762.763v-.138a.764.764 0 0 0-.763-.762zM160.722 202.569h7.309c.419 0 .762.343.762.763v-.138a.764.764 0 0 0-.762-.762h-7.309a.764.764 0 0 0-.762.762v.138c0-.42.343-.763.762-.763zM160.722 180.871h7.309c.419 0 .762.343.762.762v-.137a.764.764 0 0 0-.762-.762h-7.309a.764.764 0 0 0-.762.762v.137c0-.419.343-.762.762-.762zM160.722 191.717h7.309c.419 0 .762.342.762.762v-.138a.764.764 0 0 0-.762-.762h-7.309a.764.764 0 0 0-.762.762v.138c0-.42.343-.762.762-.762zM96.122 164.241h-7.309a.764.764 0 0 0-.762.762v.138c0-.42.343-.763.762-.763h7.31c.419 0 .762.343.762.763v-.138a.764.764 0 0 0-.763-.762zM148.733 164.378h7.309c.419 0 .762.343.762.763v-.138a.764.764 0 0 0-.762-.762h-7.309a.764.764 0 0 0-.762.762v.138c0-.42.343-.763.762-.763zM148.733 170.895h7.309c.419 0 .762.343.762.762v-.137a.764.764 0 0 0-.762-.762h-7.309a.764.764 0 0 0-.762.762v.137c0-.419.343-.762.762-.762zM196.672 164.378h7.309c.419 0 .762.343.762.763v-.138a.764.764 0 0 0-.762-.762h-7.309a.764.764 0 0 0-.762.762v.138c0-.42.343-.763.762-.763zM160.722 170.895h7.309c.419 0 .762.343.762.762v-.137a.764.764 0 0 0-.762-.762h-7.309a.764.764 0 0 0-.762.762v.137c0-.419.343-.762.762-.762zM160.722 164.378h7.309c.419 0 .762.343.762.763v-.138a.764.764 0 0 0-.762-.762h-7.309a.764.764 0 0 0-.762.762v.138c0-.42.343-.763.762-.763zM148.733 180.871h7.309c.419 0 .762.343.762.762v-.137a.764.764 0 0 0-.762-.762h-7.309a.764.764 0 0 0-.762.762v.137c0-.419.343-.762.762-.762zM136.752 170.895h7.309c.42 0 .762.343.762.762v-.137a.764.764 0 0 0-.762-.762h-7.309a.764.764 0 0 0-.762.762v.137c0-.419.343-.762.762-.762zM136.752 180.871h7.309c.42 0 .762.343.762.762v-.137a.764.764 0 0 0-.762-.762h-7.309a.764.764 0 0 0-.762.762v.137c0-.419.343-.762.762-.762zM136.752 191.717h7.309c.42 0 .762.342.762.762v-.138a.764.764 0 0 0-.762-.762h-7.309a.764.764 0 0 0-.762.762v.138c0-.42.343-.762.762-.762zM148.733 191.717h7.309c.419 0 .762.342.762.762v-.138a.764.764 0 0 0-.762-.762h-7.309a.764.764 0 0 0-.762.762v.138c0-.42.343-.762.762-.762zM136.752 202.569h7.309c.42 0 .762.343.762.763v-.138a.764.764 0 0 0-.762-.762h-7.309a.764.764 0 0 0-.762.762v.138c0-.42.343-.763.762-.763zM136.752 164.378h7.309c.42 0 .762.343.762.763v-.138a.764.764 0 0 0-.762-.762h-7.309a.764.764 0 0 0-.762.762v.138c0-.42.343-.763.762-.763zM148.733 202.569h7.309c.419 0 .762.343.762.763v-.138a.764.764 0 0 0-.762-.762h-7.309a.764.764 0 0 0-.762.762v.138c0-.42.343-.763.762-.763zM180.012 213.285h-55.241a.764.764 0 0 0-.762.762v.137c0-.419.343-.762.762-.762h55.241c.419 0 .762.343.762.762v-.137a.764.764 0 0 0-.762-.762zM203.981 213.285h-7.309a.764.764 0 0 0-.762.762v.137c0-.419.343-.762.762-.762h7.309c.419 0 .762.343.762.762v-.137a.764.764 0 0 0-.762-.762zM191.993 164.241h-7.309a.764.764 0 0 0-.762.762v.138c0-.42.343-.763.762-.763h7.309c.419 0 .762.343.762.763v-.138a.764.764 0 0 0-.762-.762zM191.993 180.726h-7.309a.764.764 0 0 0-.762.762v.138c0-.42.343-.763.762-.763h7.309c.419 0 .762.343.762.763v-.138a.764.764 0 0 0-.762-.762zM191.993 170.758h-7.309a.764.764 0 0 0-.762.762v.137c0-.419.343-.762.762-.762h7.309c.419 0 .762.343.762.762v-.137a.764.764 0 0 0-.762-.762zM191.993 191.579h-7.309a.764.764 0 0 0-.762.762v.138c0-.42.343-.762.762-.762h7.309c.419 0 .762.342.762.762v-.138a.764.764 0 0 0-.762-.762zM191.993 213.285h-7.309a.764.764 0 0 0-.762.762v.137c0-.419.343-.762.762-.762h7.309c.419 0 .762.343.762.762v-.137a.764.764 0 0 0-.762-.762zM191.993 202.432h-7.309a.764.764 0 0 0-.762.762v.138c0-.42.343-.763.762-.763h7.309c.419 0 .762.343.762.763v-.138a.764.764 0 0 0-.762-.762zM215.962 164.241h-7.309a.764.764 0 0 0-.762.762v.138c0-.42.343-.763.762-.763h7.309c.419 0 .762.343.762.763v-.138a.764.764 0 0 0-.762-.762zM203.981 202.432h-7.309a.764.764 0 0 0-.762.762v.138c0-.42.343-.763.762-.763h7.309c.419 0 .762.343.762.763v-.138a.764.764 0 0 0-.762-.762zM180.012 164.241h-7.309a.764.764 0 0 0-.762.762v.138c0-.42.343-.763.762-.763h7.309c.419 0 .762.343.762.763v-.138a.764.764 0 0 0-.762-.762zM215.962 180.726h-19.29a.764.764 0 0 0-.762.762v.138c0-.42.343-.763.762-.763h19.29c.419 0 .762.343.762.763v-.138a.764.764 0 0 0-.762-.762zM215.962 170.758h-19.29a.764.764 0 0 0-.762.762v.137c0-.419.343-.762.762-.762h19.29c.419 0 .762.343.762.762v-.137a.764.764 0 0 0-.762-.762zM215.962 202.432h-7.309a.764.764 0 0 0-.762.762v.138c0-.42.343-.763.762-.763h7.309c.419 0 .762.343.762.763v-.138a.764.764 0 0 0-.762-.762zM203.981 191.579h-7.309a.764.764 0 0 0-.762.762v.138c0-.42.343-.762.762-.762h7.309c.419 0 .762.342.762.762v-.138a.764.764 0 0 0-.762-.762zM215.962 213.285h-7.309a.764.764 0 0 0-.762.762v.137c0-.419.343-.762.762-.762h7.309c.419 0 .762.343.762.762v-.137a.764.764 0 0 0-.762-.762zM120.092 202.432h-7.309a.764.764 0 0 0-.762.762v.138c0-.42.343-.763.762-.763h7.309c.419 0 .762.343.762.763v-.138a.764.764 0 0 0-.762-.762zM108.111 164.241h-7.309a.764.764 0 0 0-.762.762v.138c0-.42.343-.763.762-.763h7.309c.419 0 .762.343.762.763v-.138a.764.764 0 0 0-.762-.762zM120.092 213.285h-7.309a.764.764 0 0 0-.762.762v.137c0-.419.343-.762.762-.762h7.309c.419 0 .762.343.762.762v-.137a.764.764 0 0 0-.762-.762zM108.111 213.285h-7.309a.764.764 0 0 0-.762.762v.137c0-.419.343-.762.762-.762h7.309c.419 0 .762.343.762.762v-.137a.764.764 0 0 0-.762-.762zM108.111 170.758h-7.309a.764.764 0 0 0-.762.762v.137c0-.419.343-.762.762-.762h7.309c.419 0 .762.343.762.762v-.137a.764.764 0 0 0-.762-.762zM108.111 202.432h-7.309a.764.764 0 0 0-.762.762v.138c0-.42.343-.763.762-.763h7.309c.419 0 .762.343.762.763v-.138a.764.764 0 0 0-.762-.762zM108.111 180.726h-7.309a.764.764 0 0 0-.762.762v.138c0-.42.343-.763.762-.763h7.309c.419 0 .762.343.762.763v-.138a.764.764 0 0 0-.762-.762zM108.111 191.579h-7.309a.764.764 0 0 0-.762.762v.138c0-.42.343-.762.762-.762h7.309c.419 0 .762.342.762.762v-.138a.764.764 0 0 0-.762-.762zM180.012 191.579h-7.309a.764.764 0 0 0-.762.762v.138c0-.42.343-.762.762-.762h7.309c.419 0 .762.342.762.762v-.138a.764.764 0 0 0-.762-.762zM180.012 202.432h-7.309a.764.764 0 0 0-.762.762v.138c0-.42.343-.763.762-.763h7.309c.419 0 .762.343.762.763v-.138a.764.764 0 0 0-.762-.762zM180.012 170.758h-7.309a.764.764 0 0 0-.762.762v.137c0-.419.343-.762.762-.762h7.309c.419 0 .762.343.762.762v-.137a.764.764 0 0 0-.762-.762zM180.012 180.726h-7.309a.764.764 0 0 0-.762.762v.138c0-.42.343-.763.762-.763h7.309c.419 0 .762.343.762.763v-.138a.764.764 0 0 0-.762-.762zM120.092 164.241h-7.309a.764.764 0 0 0-.762.762v.138c0-.42.343-.763.762-.763h7.309c.419 0 .762.343.762.763v-.138a.764.764 0 0 0-.762-.762zM120.092 180.726h-7.309a.764.764 0 0 0-.762.762v.138c0-.42.343-.763.762-.763h7.309c.419 0 .762.343.762.763v-.138a.764.764 0 0 0-.762-.762zM120.092 170.758h-7.309a.764.764 0 0 0-.762.762v.137c0-.419.343-.762.762-.762h7.309c.419 0 .762.343.762.762v-.137a.764.764 0 0 0-.762-.762zM120.092 191.579h-7.309a.764.764 0 0 0-.762.762v.138c0-.42.343-.762.762-.762h7.309c.419 0 .762.342.762.762v-.138a.764.764 0 0 0-.762-.762z" fill="#003284"/><path d="M164.815 255.173h-37.963a3.663 3.663 0 0 1-3.666-3.666v-19.199a3.663 3.663 0 0 1 3.666-3.666h37.963a3.662 3.662 0 0 1 3.665 3.666v19.199a3.667 3.667 0 0 1-3.665 3.666z" fill="#78C272"/><path d="M164.815 254.936h-37.963a3.662 3.662 0 0 1-3.666-3.665v-18.963a3.663 3.663 0 0 1 3.666-3.666h37.963a3.662 3.662 0 0 1 3.665 3.666v18.963a3.661 3.661 0 0 1-3.665 3.665z" fill="#78C272"/><path d="M168.48 250.089h-45.294v.526h45.294v-.526z" fill="#E6FFFF"/><path d="M168.48 249.967h-45.294v.526h45.294v-.526z" fill="#3E9679"/><path d="M232.074 145.691H59.966a3.903 3.903 0 0 1-3.658-2.561l-15.586-40.104c-.442-3.247 1.959-5.45 4.65-5.45H246.66c3.156 0 5.198 2.965 4.604 5.953l-15.54 39.601a3.884 3.884 0 0 1-3.651 2.561z" fill="#A3BAD7"/><path d="M45.371 97.698h201.29c2.744 0 4.642 2.24 4.703 4.794.008-2.599-1.913-4.916-4.703-4.916H45.371c-2.53 0-4.801 1.944-4.695 4.878-.038-2.858 2.203-4.756 4.695-4.756z" fill="#fff"/><path d="M232.699 147.482H59.334a3.925 3.925 0 0 1-3.681-2.584L40.958 104.26c-.922-2.553.968-5.243 3.681-5.243h202.762c2.713 0 4.603 2.69 3.681 5.243l-14.694 40.638a3.932 3.932 0 0 1-3.689 2.584z" fill="#AAD6AF"/><path d="M247.393 99.017H44.639c-2.713 0-4.603 2.69-3.68 5.243l14.06 38.877H237.02l14.062-38.877c.914-2.553-.976-5.243-3.689-5.243z" fill="#F0F0F0"/><path d="M45.112 103.757l13.353 38.031h174.333l14.069-38.031H45.112z" fill="#fff"/><path d="M240.831 130.112l10.274-26.187c.838-2.523-1.037-5.144-3.712-5.144H44.639c-2.377 0-4.115 2.065-3.902 4.29l9.817 25.266-8.88-24.572a3.13 3.13 0 0 1 .382-2.881 3.118 3.118 0 0 1 2.584-1.341H247.4c1.044 0 1.981.487 2.583 1.341.602.854.74 1.905.381 2.881l-9.534 26.347z" fill="#fff"/><path d="M247.393 99.779a3.12 3.12 0 0 1 2.584 1.341 3.09 3.09 0 0 1 .381 2.881l-14.694 40.638a3.162 3.162 0 0 1-2.965 2.08H59.334a3.161 3.161 0 0 1-2.965-2.08l-14.694-40.638a3.13 3.13 0 0 1 .38-2.881 3.12 3.12 0 0 1 2.584-1.341h202.754zm0-.762H44.639c-2.713 0-4.603 2.69-3.68 5.243l14.694 40.638a3.925 3.925 0 0 0 3.68 2.584H232.7a3.925 3.925 0 0 0 3.681-2.584l14.694-40.638c.922-2.553-.968-5.243-3.681-5.243z" fill="#E5F0FF"/><path d="M222.646 158.609c2.16 0 3.91-1.792 3.91-4.001 0-2.21-1.75-4.002-3.91-4.002-2.159 0-3.91 1.792-3.91 4.002 0 2.209 1.751 4.001 3.91 4.001z" fill="#E0F3FF"/><path d="M222.646 158.426a3.91 3.91 0 1 0 0-7.82 3.91 3.91 0 0 0 0 7.82z" fill="#B6BAD7"/><path d="M222.646 157.732a3.216 3.216 0 1 0 0-6.432 3.216 3.216 0 0 0 0 6.432z" fill="#D0DDFF"/><path d="M222.646 157.649a3.21 3.21 0 0 1-3.208-3.171c0 .015-.008.023-.008.038a3.217 3.217 0 0 0 6.432 0c0-.015 0-.023-.007-.038a3.211 3.211 0 0 1-3.209 3.171z" fill="#E0F3FF"/><path d="M48.694 113.962h194.393l3.78-10.205H45.112l3.582 10.205z" fill="#4DA567"/><path d="M246.738 104.1l.129-.343H45.112l.114.343h201.512z" fill="#35EFFF"/><path d="M55.094 110.967c.75-1.022.22-2.684-1.181-3.712-1.402-1.028-3.146-1.033-3.895-.012-.75 1.022-.22 2.684 1.181 3.712 1.402 1.028 3.146 1.033 3.895.012z" fill="#00D4FF"/><path d="M55.109 110.794c.704-1.038.119-2.663-1.306-3.629-1.425-.966-3.15-.907-3.854.131-.704 1.038-.12 2.663 1.305 3.629 1.425.966 3.151.907 3.855-.131z" fill="#0075EC"/><path d="M54.346 110.277c.495-.732.084-1.877-.92-2.557-1.003-.68-2.218-.638-2.714.093-.496.732-.085 1.877.919 2.557 1.003.68 2.218.638 2.715-.093z" fill="#FFE200"/><path d="M51.979 107.309c1.06 0 2.172.793 2.507 1.768 0-.015 0-.023-.007-.038-.32-.998-1.448-1.806-2.523-1.806-1.075 0-1.684.808-1.357 1.806.008.015.008.023.016.038-.297-.975.305-1.768 1.364-1.768z" fill="#FFFF4E"/><path d="M62.174 110.965c.75-1.022.22-2.683-1.182-3.712-1.401-1.028-3.145-1.033-3.895-.011-.749 1.022-.22 2.683 1.182 3.711s3.146 1.034 3.895.012z" fill="#00D4FF"/><path d="M62.188 110.793c.704-1.038.12-2.663-1.306-3.629-1.424-.966-3.15-.907-3.854.131-.704 1.038-.12 2.663 1.306 3.629 1.425.966 3.15.907 3.854-.131z" fill="#0075EC"/><path d="M61.425 110.276c.496-.732.085-1.877-.919-2.557-1.003-.68-2.219-.638-2.715.093-.496.732-.084 1.876.92 2.557 1.003.68 2.218.638 2.714-.093z" fill="#FF2149"/><path d="M59.052 107.309c1.06 0 2.172.793 2.507 1.768 0-.015 0-.023-.008-.038-.32-.998-1.448-1.806-2.522-1.806-1.075 0-1.685.808-1.357 1.806.008.015.008.023.015.038-.297-.975.313-1.768 1.365-1.768z" fill="#FF528A"/><path d="M69.253 110.963c.75-1.021.22-2.683-1.181-3.711-1.402-1.028-3.146-1.034-3.895-.012-.75 1.022-.22 2.684 1.181 3.712 1.402 1.028 3.146 1.033 3.895.011z" fill="#00D4FF"/><path d="M69.263 110.798c.704-1.038.12-2.663-1.305-3.629-1.425-.966-3.151-.907-3.855.131-.704 1.038-.12 2.663 1.306 3.629 1.425.966 3.15.907 3.854-.131z" fill="#0075EC"/><path d="M68.5 110.281c.496-.732.085-1.876-.919-2.557-1.003-.68-2.219-.638-2.715.093-.495.732-.084 1.877.92 2.557 1.003.68 2.218.638 2.714-.093z" fill="#0FE490"/><path d="M66.132 107.309c1.06 0 2.172.793 2.507 1.768 0-.015 0-.023-.007-.038-.32-.998-1.448-1.806-2.523-1.806-1.075 0-1.684.808-1.356 1.806.007.015.007.023.015.038-.297-.975.305-1.768 1.364-1.768z" fill="#45FFC6"/><path d="M136.935 120.753H57.588c-.632 0-1.143-.51-1.143-1.143s.51-1.143 1.143-1.143h79.347c.633 0 1.144.51 1.144 1.143s-.511 1.143-1.144 1.143z" fill="#58B25B"/><path d="M152.392 120.753h-9.299c-.632 0-1.143-.51-1.143-1.143s.511-1.143 1.143-1.143h9.299c.632 0 1.143.51 1.143 1.143s-.511 1.143-1.143 1.143z" fill="#4DA567"/><path d="M183.929 120.753h-25.753c-.632 0-1.143-.51-1.143-1.143s.511-1.143 1.143-1.143h25.753c.633 0 1.143.51 1.143 1.143s-.518 1.143-1.143 1.143z" fill="#58B25B"/><path d="M200.323 120.753h-5.183c-.632 0-1.143-.51-1.143-1.143s.511-1.143 1.143-1.143h5.183c.633 0 1.143.51 1.143 1.143a1.14 1.14 0 0 1-1.143 1.143zM209.217 120.753h-5.182c-.633 0-1.144-.51-1.144-1.143s.511-1.143 1.144-1.143h5.182c.633 0 1.143.51 1.143 1.143a1.14 1.14 0 0 1-1.143 1.143z" fill="#FF3EDD"/><path d="M72.991 126.065H59.578a1.142 1.142 0 1 1 0-2.286H72.99a1.142 1.142 0 1 1 0 2.286z" fill="#4DA567"/><path d="M107.402 126.065H80.491c-.633 0-1.143-.51-1.143-1.143 0-.632.51-1.143 1.143-1.143h26.919a1.142 1.142 0 1 1-.008 2.286z" fill="#78C272"/><path d="M159.96 126.065h-44.906a1.142 1.142 0 1 1 0-2.286h44.906a1.142 1.142 0 1 1 0 2.286z" fill="#4DA567"/><path d="M90.406 132.65H61.56c-.633 0-1.143-.51-1.143-1.143s.51-1.143 1.143-1.143h28.847c.633 0 1.143.51 1.143 1.143s-.51 1.143-1.143 1.143zM100.04 132.65h-3.155c-.633 0-1.144-.51-1.144-1.143s.511-1.143 1.144-1.143h3.155c.632 0 1.143.51 1.143 1.143s-.511 1.143-1.143 1.143zM112.021 132.65h-4.619c-.632 0-1.143-.51-1.143-1.143s.511-1.143 1.143-1.143h4.619c.632 0 1.143.51 1.143 1.143s-.511 1.143-1.143 1.143zM124.009 132.65h-6.615a1.14 1.14 0 0 1-1.143-1.143c0-.633.51-1.143 1.143-1.143h6.615c.633 0 1.144.51 1.144 1.143s-.511 1.143-1.144 1.143zM173.899 126.065h-8.498a1.142 1.142 0 1 1 0-2.286h8.498a1.142 1.142 0 1 1 0 2.286z" fill="#AAD6AF"/><path d="M197.732 126.065h-18.528a1.14 1.14 0 0 1-1.143-1.143c0-.632.51-1.143 1.143-1.143h18.528a1.142 1.142 0 1 1 0 2.286z" fill="#4DA567"/><path d="M83.821 138.603H63.213a1.142 1.142 0 0 1-1.143-1.144c0-.632.51-1.143 1.143-1.143h20.608c.633 0 1.144.511 1.144 1.143 0 .633-.511 1.144-1.144 1.144z" fill="#58B25B"/><path d="M230.191 133.923h-46.269a1.142 1.142 0 1 1 0-2.286h46.269a1.142 1.142 0 1 1 0 2.286zM227.646 138.603h-7.225a1.142 1.142 0 0 1-1.143-1.144c0-.632.51-1.143 1.143-1.143h7.225c.632 0 1.143.511 1.143 1.143 0 .633-.511 1.144-1.143 1.144zM216.724 138.603h-6.287a1.142 1.142 0 1 1 0-2.287h6.287a1.142 1.142 0 1 1 0 2.287z" fill="#FFC400"/><path opacity=".34" d="M246.509 104.718l.358-.961h-7.255l-38.039 38.031h7.865l37.071-37.07z" fill="#fff"/><path d="M163.389 110.136H13.864A3.864 3.864 0 0 1 10 106.272v-94.36a3.864 3.864 0 0 1 3.864-3.865H163.39a3.864 3.864 0 0 1 3.864 3.864v94.361a3.864 3.864 0 0 1-3.864 3.864z" fill="#F0F0F0"/><path opacity=".53" d="M163.389 109.618H13.864A3.864 3.864 0 0 1 10 105.754v.518a3.864 3.864 0 0 0 3.864 3.864H163.39a3.864 3.864 0 0 0 3.864-3.864v-.518a3.864 3.864 0 0 1-3.864 3.864z" fill="#fff"/><path opacity=".3" d="M162.787 7.102H14.474A4.476 4.476 0 0 0 10 11.576v.952a4.476 4.476 0 0 1 4.474-4.473h148.313a4.475 4.475 0 0 1 4.474 4.473v-.952a4.476 4.476 0 0 0-4.474-4.474z" fill="#4DA567"/><path d="M162.787 8.047H14.474A4.476 4.476 0 0 0 10 12.521v11.996h157.253V12.521a4.469 4.469 0 0 0-4.466-4.474z" fill="#4DA567"/><path opacity=".4" d="M162.787 8.047H14.474A4.476 4.476 0 0 0 10 12.521v.16a4.476 4.476 0 0 1 4.474-4.474h148.313a4.475 4.475 0 0 1 4.474 4.474v-.16a4.48 4.48 0 0 0-4.474-4.474zM167.253 23.854H10v.663h157.253v-.663z" fill="#00E3FF"/><path opacity=".81" d="M158.054 104.763H19.55a3.184 3.184 0 0 1-3.186-3.185V32.657a3.184 3.184 0 0 1 3.186-3.186h138.504a3.184 3.184 0 0 1 3.186 3.186v68.921a3.184 3.184 0 0 1-3.186 3.185z" fill="#fff"/><path d="M24.008 33.884l-3.46 3.46 3.46 3.46M32.704 33.884l3.468 3.46-3.46 3.46M26.897 41.399l2.744-7.515" stroke="#53AC60" stroke-width="2" stroke-miterlimit="10" stroke-linecap="round" stroke-linejoin="round"/><path d="M39.846 42.435a.976.976 0 1 0 0-1.95.976.976 0 0 0 0 1.95zM43.893 42.435a.976.976 0 1 0 0-1.95.976.976 0 0 0 0 1.95zM47.932 42.435a.976.976 0 1 0 0-1.951.976.976 0 0 0 0 1.951z" fill="#53AC60"/><path d="M22.278 48.494h104.056M132.644 48.494h8.018M145.166 48.494h10.236" stroke="#AAD6AF" stroke-width="2" stroke-miterlimit="10" stroke-linecap="round" stroke-linejoin="round"/><path d="M22.278 56.687h65.095M97.06 56.687h11.668M108.728 61.39H77.054M72.702 61.39h-6.387M61.247 61.39H54.86M49.792 61.39h-6.38M38.337 61.39h-6.38" stroke="#78C272" stroke-width="2" stroke-miterlimit="10" stroke-linecap="round" stroke-linejoin="round"/><path d="M130.67 67.113H31.957" stroke="#4DA567" stroke-width="2" stroke-miterlimit="10" stroke-linecap="round" stroke-linejoin="round"/><path d="M24.58 61.39h-2.302M24.58 67.113h-2.302M24.58 72.837h-2.302M24.58 78.569h-2.302" stroke="#78C272" stroke-width="2" stroke-miterlimit="10" stroke-linecap="round" stroke-linejoin="round"/><path d="M136.653 67.113h13.627M31.721 72.837H59.03M31.721 78.706H59.03M31.721 84.567H59.03M31.721 90.435H59.03" stroke="#4DA567" stroke-width="2" stroke-miterlimit="10" stroke-linecap="round" stroke-linejoin="round"/><path d="M77.054 90.435h55.59M110.009 84.567h22.635M123.659 78.569h8.985" stroke="#3E9679" stroke-width="2" stroke-miterlimit="10" stroke-linecap="round" stroke-linejoin="round"/><path d="M253.361 167.999h-69.775a3.95 3.95 0 0 1-3.948-3.948V51.055a3.95 3.95 0 0 1 3.948-3.948h69.775a3.95 3.95 0 0 1 3.948 3.948v112.996a3.95 3.95 0 0 1-3.948 3.948z" fill="#F0F0F0"/><path d="M253.445 167.549h-69.943a3.864 3.864 0 0 1-3.864-3.864v.45a3.864 3.864 0 0 0 3.864 3.864h69.943a3.864 3.864 0 0 0 3.864-3.864v-.45a3.864 3.864 0 0 1-3.864 3.864z" fill="#F0F0F0"/><path opacity=".3" d="M254.336 46.474h-71.725a2.971 2.971 0 0 0-2.973 2.973v.632a2.972 2.972 0 0 1 2.973-2.972h71.725a2.972 2.972 0 0 1 2.973 2.972v-.632a2.976 2.976 0 0 0-2.973-2.973z" fill="#00A3FF"/><path d="M254.336 47.107h-71.725a2.971 2.971 0 0 0-2.973 2.972v7.98h77.671v-7.98a2.976 2.976 0 0 0-2.973-2.972z" fill="#4DA567"/><path opacity=".4" d="M254.336 47.107h-71.725a2.971 2.971 0 0 0-2.973 2.972v.107a2.972 2.972 0 0 1 2.973-2.972h71.725a2.972 2.972 0 0 1 2.973 2.972v-.107a2.976 2.976 0 0 0-2.973-2.972zM257.309 57.625h-77.671v.442h77.671v-.442z" fill="#00E3FF"/><path d="M250.122 164.424h-63.068a3.184 3.184 0 0 1-3.186-3.186V64.545a3.184 3.184 0 0 1 3.186-3.186h63.068a3.184 3.184 0 0 1 3.185 3.186v96.693a3.19 3.19 0 0 1-3.185 3.186z" fill="#fff"/><path d="M235.961 74.598h-48.16a.582.582 0 0 1-.587-.587c0-.328.259-.587.587-.587h48.16c.328 0 .587.26.587.587 0 .32-.267.587-.587.587z" fill="#4DA567"/><path d="M243.727 74.598h-3.574a.582.582 0 0 1-.587-.587c0-.328.259-.587.587-.587h3.574a.587.587 0 0 1 0 1.174zM249.42 74.598h-2.698a.582.582 0 0 1-.586-.587c0-.328.259-.587.586-.587h2.698a.587.587 0 0 1 0 1.174z" fill="#78C272"/><path d="M214.849 80.04h-27.048a.582.582 0 0 1-.587-.587c0-.328.259-.587.587-.587h27.048c.328 0 .587.259.587.587a.582.582 0 0 1-.587.586zM224.254 80.04h-7.758a.582.582 0 0 1-.587-.587c0-.328.259-.587.587-.587h7.758a.587.587 0 0 1 0 1.174zM224.254 83.172h-4.824a.582.582 0 0 1-.587-.587c0-.328.259-.587.587-.587h4.824c.328 0 .587.26.587.587 0 .32-.267.587-.587.587zM217.09 83.172h-.556a.582.582 0 0 1-.587-.587c0-.328.259-.587.587-.587h.556c.328 0 .587.26.587.587 0 .32-.267.587-.587.587zM213.714 83.172h-4.245a.582.582 0 0 1-.587-.587c0-.328.259-.587.587-.587h4.245a.587.587 0 0 1 0 1.174zM206.1 83.172h-4.245a.582.582 0 0 1-.587-.587c0-.328.259-.587.587-.587h4.245a.587.587 0 0 1 0 1.174zM198.486 83.172h-4.245a.582.582 0 0 1-.587-.587c0-.328.259-.587.587-.587h4.245c.328 0 .587.26.587.587 0 .32-.267.587-.587.587z" fill="#AAD6AF"/><path d="M238.842 86.975h-44.609a.582.582 0 0 1-.586-.587c0-.328.259-.587.586-.587h44.609c.328 0 .587.26.587.587a.582.582 0 0 1-.587.587z" fill="#78C272"/><path d="M189.333 83.172h-1.532a.582.582 0 0 1-.587-.587c0-.328.259-.587.587-.587h1.532a.587.587 0 0 1 0 1.174zM189.333 86.975h-1.532a.582.582 0 0 1-.587-.587c0-.328.259-.587.587-.587h1.532c.328 0 .587.26.587.587a.582.582 0 0 1-.587.587zM189.333 90.786h-1.532a.582.582 0 0 1-.587-.587c0-.328.259-.587.587-.587h1.532a.587.587 0 0 1 0 1.174zM189.333 94.589h-1.532a.582.582 0 0 1-.587-.587c0-.328.259-.587.587-.587h1.532c.328 0 .587.26.587.587a.582.582 0 0 1-.587.587z" fill="#AAD6AF"/><path d="M248.369 86.975h-5.541a.582.582 0 0 1-.587-.587c0-.328.259-.587.587-.587h5.541a.586.586 0 1 1 0 1.174zM212.243 90.786h-18.162a.582.582 0 0 1-.587-.587c0-.328.259-.587.587-.587h18.162a.587.587 0 0 1 0 1.174z" fill="#78C272"/><path d="M240.153 102.485h-20.731a.583.583 0 0 1-.587-.587c0-.328.26-.587.587-.587h20.731c.327 0 .587.259.587.587 0 .327-.26.587-.587.587zM240.153 98.582H225.1a.583.583 0 0 1-.587-.586c0-.328.26-.587.587-.587h15.053c.327 0 .587.259.587.587 0 .327-.26.586-.587.586zM240.153 94.589h-5.976a.582.582 0 0 1-.586-.587c0-.328.259-.587.586-.587h5.976c.327 0 .587.26.587.587 0 .328-.26.587-.587.587z" fill="#3E9679"/><path d="M209.469 69.3h-21.668a.582.582 0 0 1-.587-.586c0-.328.259-.587.587-.587h21.668c.327 0 .587.26.587.587 0 .328-.26.587-.587.587z" fill="#78C272"/><path d="M223.538 111.752h-35.737a.582.582 0 0 1-.587-.587c0-.327.259-.586.587-.586h35.729c.328 0 .587.259.587.586a.575.575 0 0 1-.579.587zM223.538 116.447h-35.737a.582.582 0 0 1-.587-.587c0-.327.259-.587.587-.587h35.729c.328 0 .587.26.587.587a.58.58 0 0 1-.579.587zM223.538 121.142h-35.737a.582.582 0 0 1-.587-.587c0-.328.259-.587.587-.587h35.729c.328 0 .587.259.587.587a.58.58 0 0 1-.579.587zM223.538 149.166h-35.737a.582.582 0 0 1-.587-.587c0-.328.259-.587.587-.587h35.729c.328 0 .587.259.587.587a.58.58 0 0 1-.579.587z" fill="#3E9679"/><path d="M231.167 106.311h-9.763a.583.583 0 0 1-.587-.587c0-.328.259-.587.587-.587h9.763a.587.587 0 0 1 0 1.174zM249.42 106.311h-13.467a.583.583 0 0 1-.587-.587c0-.328.26-.587.587-.587h13.467a.587.587 0 0 1 0 1.174zM249.42 111.752h-13.467a.583.583 0 0 1-.587-.587c0-.327.26-.586.587-.586h13.467c.328 0 .587.259.587.586a.582.582 0 0 1-.587.587z" fill="#78C272"/><path d="M192.206 156.292h-4.405a.582.582 0 0 1-.587-.587c0-.327.259-.587.587-.587h4.405a.587.587 0 0 1 0 1.174zM192.206 159.859h-4.405a.582.582 0 0 1-.587-.587c0-.328.259-.587.587-.587h4.405a.587.587 0 0 1 0 1.174zM228.004 159.859h-33.168a.582.582 0 0 1-.587-.587c0-.328.259-.587.587-.587h33.168c.328 0 .587.259.587.587a.582.582 0 0 1-.587.587zM200.841 156.292h-4.405a.582.582 0 0 1-.587-.587c0-.327.259-.587.587-.587h4.405a.587.587 0 0 1 0 1.174z" fill="#3E9679"/><path d="M209.469 156.292h-4.405a.582.582 0 0 1-.587-.587c0-.327.259-.587.587-.587h4.405c.327 0 .587.26.587.587 0 .328-.26.587-.587.587zM218.104 156.292h-4.405a.582.582 0 0 1-.587-.587c0-.327.259-.587.587-.587h4.405c.328 0 .587.26.587.587a.582.582 0 0 1-.587.587zM226.739 156.292h-4.405a.582.582 0 0 1-.587-.587c0-.327.259-.587.587-.587h4.405a.587.587 0 0 1 0 1.174zM235.374 156.292h-4.405a.582.582 0 0 1-.587-.587c0-.327.259-.587.587-.587h4.405a.587.587 0 0 1 0 1.174zM242.241 156.292h-2.645a.583.583 0 0 1-.587-.587c0-.327.26-.587.587-.587h2.645c.328 0 .587.26.587.587a.582.582 0 0 1-.587.587z" fill="#78C272"/><path d="M17 16.102a2 2 0 0 1 2-2h25a2 2 0 0 1 2 2v3H17v-3zM183 52.102a2 2 0 0 1 2-2h15a2 2 0 0 1 2 2v3h-19v-3z" fill="#fff"/></g><defs><filter id="filter0_d" x="0" y=".102" width="267.309" height="276.34" filterUnits="userSpaceOnUse" color-interpolation-filters="sRGB"><feFlood flood-opacity="0" result="BackgroundImageFix"/><feColorMatrix in="SourceAlpha" values="0 0 0 0 0 0 0 0 0 0 0 0 0 0 0 0 0 0 127 0"/><feOffset dy="3"/><feGaussianBlur stdDeviation="5"/><feColorMatrix values="0 0 0 0 0.215686 0 0 0 0 0.27451 0 0 0 0 0.372549 0 0 0 0.15 0"/><feBlend in2="BackgroundImageFix" result="effect1_dropShadow"/><feBlend in="SourceGraphic" in2="effect1_dropShadow" result="shape"/></filter></defs></svg>